<svg xmlns="http://www.w3.org/2000/svg" xmlns:xlink="http://www.w3.org/1999/xlink" viewBox="0 0 166.68 231.96"><defs><style>.cls-1{fill:url(#Безымянный_градиент_260);}.cls-2{fill:#fff;opacity:0.1;}</style><radialGradient id="Безымянный_градиент_260" cx="83.34" cy="115.98" r="100.99" gradientUnits="userSpaceOnUse"><stop offset="0" stop-color="#f6d790"/><stop offset="1" stop-color="#ecc443"/></radialGradient></defs><title>gold</title><g id="Слой_2" data-name="Слой 2"><g id="Слой_1-2" data-name="Слой 1"><path class="cls-1" d="M166.35,163.47S161.77,217.12,114,232l-3.47-4,.79-76,18.46-7.58V107.3l-27,9.78L93.91,145.2a8.93,8.93,0,0,1-17,.18l-9.68-28.45L54.51,112.3l-12.44-4.52-1.33-.48v36.77l15.78,7.73v77l-3,3S7.23,214.89.46,166.35c-.18-1.3-.33-2.63-.46-4Q0,156,0,149.84c0-9.54.06-18.51.11-26.72,0-6.15.09-11.88.14-17.1.18-21,.4-33.91.4-33.91S8.24,4.42,81.77,0a101.39,101.39,0,0,1,21.91,2.6,83.74,83.74,0,0,1,12.85,4.11,78,78,0,0,1,17,9.61,79.46,79.46,0,0,1,9.06,7.89c17.69,17.93,23.3,40.37,23.75,47.11C167.1,83,166.35,163.47,166.35,163.47Z"/><path class="cls-2" d="M85.71.13V151.44a8.79,8.79,0,0,1-8.78-6.06l-9.68-28.45L40.74,107.3v36.77l15.78,7.73v77l-3,3S4.71,214,0,162.37c0-51.76.66-90.26.66-90.26A90.14,90.14,0,0,1,20.51,28.38C32.51,14.3,51.58,1.81,81.77,0,83.1,0,84.42.06,85.71.13Z"/></g></g></svg>