<svg xmlns="http://www.w3.org/2000/svg" viewBox="0 0 330.83 628.13"><defs><style>.cls-1{fill:#39b54a;}</style></defs><title>Ресурс 2</title><g id="Слой_2" data-name="Слой 2"><g id="Слой_1-2" data-name="Слой 1"><path class="cls-1" d="M284.67,620.76c-5,3.2-150.69,14.65-203.94.35-8-35.83-1.07-107.39-1.07-107.39s-20.6-1.69-33.72-8.18C37.47,488.61,0,315.11,0,315.11s-1.33-29,17.53-37.33c23.84-11.56,78.26-27.82,96-31.77s37-1.8,45.79,28.16c7.69,26.3,3.39,37.2-7.66,48s-48,15.89-75.77,26.23c-26.33,13.16-7.14,12,1.75,10.06s8.89-2,15.28-2.35c2.84-.16,49.44,7.13,80.57,62.45a15,15,0,0,1,1,2.18c16.34,43.32,16.52,48.2,18.5,76.16-1.38,24.57,11,15.32,9.22,5.26-3.4-46.26-9.38-64.79-19.27-84.54-21.51-49.56-73.67-68.28-71.18-69.87s30.57-4.7,44.11-17.11,21.95-26.5,12.4-58.39c-5.8-25.25-25.15-35.07-35-35.41s-16.23,3.14-20.14,1.92-.39-204.71-.39-204.71,2.24-35,35.64-34,32.56,38.75,32.56,38.75l-4.68,234.05s3.17,21.84,8.66,1c1.83-16.08,2.71-211.69,3.08-221s6.48-26.52,32.06-28,33.33,17.2,33.31,27.09l-.35,216.37s3.49,20.13,7.81,2.45c.42-18.9,3.84-196.25,3.84-196.25s4-24.92,33.48-25.2,32.56,38.75,32.56,38.75S324.31,450,324.56,483.38s-41,30-41,30S289.66,617.57,284.67,620.76Z"/><path class="cls-1" d="M34.67,259.35c1.41,2.82,67.2-17,69.69-18.61s-.81-185.81-.81-185.81,1.5-23.32-28.32-30.28c-33.4-.95-36,26.79-36,26.79S33.25,256.53,34.67,259.35Z"/></g></g></svg>