<svg xmlns="http://www.w3.org/2000/svg" xmlns:xlink="http://www.w3.org/1999/xlink" viewBox="0 0 166.68 231.96"><defs><style>.cls-1{fill:url(#Безымянный_градиент_566);}.cls-2{fill:#fff;opacity:0.1;}</style><radialGradient id="Безымянный_градиент_566" cx="83.34" cy="115.98" r="100.99" gradientUnits="userSpaceOnUse"><stop offset="0" stop-color="#4aeb60"/><stop offset="1" stop-color="#30993f"/></radialGradient></defs><title>pro-league</title><g id="Слой_2" data-name="Слой 2"><g id="Слой_1-2" data-name="Слой 1"><path class="cls-1" d="M166.35,163.47S161.77,217.12,114,232l-3.47-4,.79-76,18.46-7.58V107.3l-27,9.78L93.9,145.2a8.93,8.93,0,0,1-17,.18l-9.68-28.45L40.74,107.3v36.77l15.78,7.73v77l-3,3S4.71,214,0,162.37c0-51.76.66-90.26.66-90.26A90.14,90.14,0,0,1,20.51,28.38C32.51,14.3,51.58,1.81,81.77,0c1.33,0,2.65.06,3.94.13C117,1.65,136.78,15.88,148.9,31.39,161.66,47.71,166,65.45,166.35,71.32,167.1,83,166.35,163.47,166.35,163.47Z"/><path class="cls-2" d="M85.71.13V151.44a8.79,8.79,0,0,1-8.78-6.06l-9.68-28.45L40.74,107.3v36.77l15.78,7.73v77l-3,3S4.71,214,0,162.37c0-51.76.66-90.26.66-90.26A90.14,90.14,0,0,1,20.51,28.38C32.51,14.3,51.58,1.81,81.77,0,83.1,0,84.42.06,85.71.13Z"/></g></g></svg>