<svg xmlns="http://www.w3.org/2000/svg" viewBox="0 0 502.39 166.87">
    <g>
        <g>
            <polygon class="cls-1"
                     points="255.39 0 274.68 59.38 337.12 59.38 286.61 96.08 305.9 155.46 255.39 118.76 204.88 155.46 224.17 96.08 173.66 59.38 236.1 59.38 255.39 0"/>
            <path class="cls-1"
                  d="M130.22,85.4l4.23,13,1.42,4.36h18.29l-11.08,8-3.71,2.7,1.42,4.37,4.23,13-11.08-8.05-3.72-2.7-3.71,2.7-11.08,8.05,4.23-13,1.42-4.37-3.71-2.7-11.08-8h18.28L126,98.43l4.23-13m0-20.46L120,96.47H86.83L113.65,116l-10.24,31.52L130.22,128,157,147.48,146.8,116l26.82-19.49H140.47L130.22,64.94Z"/>
            <path class="cls-1"
                  d="M380.6,85.4l4.23,13,1.42,4.36h18.28l-11.07,8-3.72,2.7,1.42,4.37,4.23,13-11.07-8.05-3.72-2.7-3.72,2.7-11.07,8.05,4.23-13,1.42-4.37-3.72-2.7-11.07-8H375l1.42-4.36,4.23-13m0-20.46L370.36,96.47H337.21L364,116l-10.24,31.52L380.6,128l26.82,19.48L397.17,116,424,96.47H390.84L380.6,64.94Z"/>
            <path class="cls-1"
                  d="M43.39,104.79l4.23,13L49,122.18H67.33l-11.08,8-3.72,2.7L54,137.3l4.23,13-11.07-8-3.72-2.7-3.71,2.7-11.08,8,4.23-13,1.42-4.37-3.72-2.7-11.07-8H37.74l1.42-4.37,4.23-13m0-20.46L33.15,115.86H0l26.82,19.49L16.57,166.87l26.82-19.48,26.82,19.48L60,135.35l26.82-19.49H53.64L43.39,84.33Z"/>
            <path class="cls-1"
                  d="M459,104.79l4.23,13,1.42,4.37h18.28l-11.07,8-3.72,2.7,1.42,4.37,4.23,13-11.07-8-3.72-2.7-3.72,2.7-11.07,8,4.23-13,1.42-4.37-3.72-2.7-11.07-8h18.28l1.42-4.37,4.23-13m0-20.46-10.24,31.53H415.61l26.81,19.49-10.24,31.52L459,147.39l26.82,19.48-10.25-31.52,26.82-19.49H469.24L459,84.33Z"/>
        </g>
    </g>
</svg>