<svg xmlns="http://www.w3.org/2000/svg" viewBox="0 0 184.3 217.84">
    <g>
        <g>
            <path class="cls-1"
                  d="M121.5,96.63C187.89,90.12,184.26,0,184.26,0L153.84,6.89l-1.35-5.36L31.76,1.15,30.42,6.89,0,0C2.2,97,64.1,97.2,64.1,97.2c5,4.4,24.1,13.21,24.1,13.21v59.12l-31.76-.19-.19,11.86L41.13,181l.39,36.83H142.93V181.2H127.81l-.19-11.86H95.29l.76-59.13C103.32,109.06,121.5,96.63,121.5,96.63Zm32.91-82.08,22.77-5.27s-1.34,67.64-47.07,79.12C130.11,88.4,155.17,64.86,154.41,14.55ZM7.84,9.28l22.1,5.07S27,59.51,54.15,88.4C54.15,88.4,10.33,81.32,7.84,9.28Z"/>
        </g>
    </g>
</svg>