<svg xmlns="http://www.w3.org/2000/svg" viewBox="0 0 327.42 458.02">
    <defs>
        <style>.cls-1{fill:#39b54a;}</style>
    </defs>
    <g>
        <g>
            <path class="cls-1"
                  d="M283.82,444.76s-63.25,24.86-206.71,6.49V343.17s.24,3.24-19.1,0-17.66-19.46-17.66-19.46L.72,155.1s-7.64-38.37,26.74-51.88c10.39-4.08,87.36-25.94,87.36-25.94s38.67-8.65,45.59,31.07-25.54,50.26-25.54,50.26-68.12,21-69.22,22.43-2.66,6.05,0,9.73,31-4.87,31-4.87c107.42,35.13,94,151.32,94,151.32s5.13,4.19,9.07,2.7S208,244.4,138.22,194.55c24,1.62,37.65-19.62,39.14-18.37s5.88,43.4,40.58,43.23c25.63-2.16,33.33-21.3,34.85-21.08s11.7,32.43,39.63,31.89,32.95-19.46,34.37-19.46,0,61.07,0,96.74-41.53,34-41.53,34Z"/>
            <path class="cls-1"
                  d="M34.49,90.25c43.57-13,46-13,66-18.91.48-12.43,0-34.59,0-34.59S95,12.43,68.28,11.35c-22-1.08-30.14,13.15-32.23,23.78C33.41,48.58,34.62,67.82,34.49,90.25Z"/>
            <path class="cls-1"
                  d="M110.05,66.47V27.56C110.05,17.21,115.54,0,143,0s33.42,28.1,33.42,28.1V154s-2.15,19-22.92,27.56c-7.76,2-16.59,6.08-31-7.57,48.22-11.34,46.79-51.34,46.79-51.34s5.25-50-37.72-54.58Z"/>
            <path class="cls-1"
                  d="M184.52,54.58c-1,31.74,2.39,127,2.39,127s6.21,27.56,31,27.56,32.46-27.56,32.46-27.56v-127S248,24.32,217.46,24.32C193.12,24.25,184.88,42.58,184.52,54.58Z"/>
            <path class="cls-1"
                  d="M259.48,62.69c1.64-7.26,12.26-26.39,35.11-25.95s31.93,21.08,32.2,25.95.6,124.83,0,129.16S317,221,293.13,221s-33.49-21.61-33.65-28.64S257.31,72.24,259.48,62.69Z"/>
        </g>
    </g>
</svg>