<svg xmlns="http://www.w3.org/2000/svg" viewBox="0 0 335.82 631.16"><defs><style>.cls-1{fill:#39b54a;}</style></defs><title>Ресурс 4</title><g id="Слой_2" data-name="Слой 2"><g id="Слой_1-2" data-name="Слой 1"><path class="cls-1" d="M281.43,621.88s-90.66,20-204,1.23c.12-13.92,3.24-105.28,1-112.34-21.53,8.29-34-16.52-34-16.52S10.14,316.92,8.32,307C7.46,287.24,26.5,274.3,26.5,274.3s94.15-30.58,114.71-27.79,29.32,29.91,29.61,37-5,34.14-17.72,43.57-70.65,19.11-79.47,23.21c-6.08,5.88,1.93,8.72,1.93,8.72s14.36-3.51,25.57-5.42C211.31,398,193.85,510,193.85,510s4.83,11.1,8.38-1.37c16.55-114-86.39-160.18-86.39-160.18s61.93,2.81,63.08-64.26C170.26,226.73,122,237.93,122,237.93s5.61-197.67,6-206.11S132.1.58,158.64,0,193.21,19.11,193,28.6l-8.56,319.85s-3.33,33.38,41.32,45.39c31.42,2.58,30.25-22.19,34.88-21.13s4.22,26.15,37.43,34.64c18.54,5.7,33-19.28,35.26-15.75s-2.09,79.12-2.19,93.25c-3.92,43.82-44.81,38-44.81,38Z"/><path class="cls-1" d="M302.88,212.88c24.35-1.17,32.94,17.13,32.94,23.46s-2.69,137.27-2.69,137.27-7.14,25.53-30.94,25.22-33.13-23.6-33.13-23.6,2.39-126.34,2.81-135S278.54,214.06,302.88,212.88Z"/><path class="cls-1" d="M226.11,197.79c30.53-5.71,38.08,27.66,38.08,37s-5.51,116.77-6.17,121.7-4.93,27.14-30.28,27.6-32.55-22.64-32.55-26.69.87-127.4.87-127.4S195.58,203.5,226.11,197.79Z"/><path class="cls-1" d="M105.78,240.74S66.24,38.25,63,29.56,45.28,8.74,24.46,16.9C-2.41,28.33.06,52.43.06,52.43l41.8,204.88Z"/></g></g></svg>