<svg xmlns="http://www.w3.org/2000/svg" xmlns:xlink="http://www.w3.org/1999/xlink" viewBox="0 0 286 125.35"><defs><style>.cls-1{fill:url(#Безымянный_градиент_577);}.cls-2{fill:url(#Безымянный_градиент_577-2);}.cls-3{fill:url(#Безымянный_градиент_577-3);}</style><radialGradient id="Безымянный_градиент_577" cx="69.02" cy="64.8" r="64.92" gradientUnits="userSpaceOnUse"><stop offset="0.01" stop-color="#dfedf7"/><stop offset="1" stop-color="#78a1cf"/></radialGradient><radialGradient id="Безымянный_градиент_577-2" cx="172.76" cy="70.76" r="39.8" xlink:href="#Безымянный_градиент_577"/><radialGradient id="Безымянный_градиент_577-3" cx="235.7" cy="60.25" r="55.5" xlink:href="#Безымянный_градиент_577"/></defs><title>platinum_f</title><g id="Слой_2" data-name="Слой 2"><g id="Слой_1-2" data-name="Слой 1"><path class="cls-1" d="M134.08,54.39a17,17,0,0,1,2.22,12,15.57,15.57,0,0,1-5.12,9.28,2.69,2.69,0,0,0-.8,3.08c1.21,3,3,9,.41,13.61a20.84,20.84,0,0,1-5.92,7,2.71,2.71,0,0,0-.9,3.19c1.16,2.89,2.6,8.25-.32,12.52-4.22,6.17-3.9,9.41-12.34,10.06-7.52.58-41.74-.56-49-.82a25.11,25.11,0,0,1-2.74-.24C52.17,123.07,17.62,118,13,114.8c-5.05-3.47-8.26-5.41-12.62-13A2.62,2.62,0,0,1,0,100.45V52.86a2.71,2.71,0,0,1,.1-.75c.45-1.6,2.41-7.83,6.07-10.65,4-3.06,44.33-31.53,48.9-34.75A4.86,4.86,0,0,1,56,6.29s6.28-1.6,8.42-1.83c4.67-.5,18.78,0,18.78,0s.25,0,.37,0c4,.25,14.22-1.08,17.07,17.81a2.72,2.72,0,0,0,2.72,2.3L124,24.27a2.25,2.25,0,0,1,.63.06c2.15.48,14,3.62,13.32,14.94a2.36,2.36,0,0,0,0,.46c.13,1.2.56,7.3-3.45,11.34A2.7,2.7,0,0,0,134.08,54.39Z"/><path class="cls-2" d="M175,20.71H160.4s-11.69-.4-13.31,15.58c-.36,3.54.33,7.46,5.84,13,0,0-5.59,3.89-3.48,14.12,0,0,1.05,6.65,6.57,9.17,0,0-4.79,10.46-1.14,15.57,0,0,2,6.33,7.55,8.2,0,0-3.9,10.22.48,16.06s7.15,7.52,10.39,8.11c3.85.71,15.66,0,15.66,0s10.71-2.75,9.33-11.76-9.5-13.06-9.5-13.06,10.8-3.65,9.62-12.9a13.73,13.73,0,0,0-9.21-11.52s9.49-4.71,8.28-7.47l-8.77-.48S169.05,63.22,175,20.71Z"/><path class="cls-3" d="M218.81,42.45s-4.54,29.7,21.42,45.44l1.46-2.76s-20.28-13.31-12.82-47.22L218.51,26.23h-9.59s-.8,24.73-16.07,26.61c0,0-7,.65-7.3-5.52s0-31.31,0-31.31S188.15,1.06,202.1.5a187.77,187.77,0,0,1,20.61,0s30.07-7.35,57.5,34.33c3.2,4.87,3.19,3.73,5.62,14.6,0,0-.51,34.33,0,45.76.74,16.35,1.79,19.8-60.36,25.31H205s8.11-11.52.16-24c-.65-.81,7.63-9.57.33-25.88,0,0,3.89-7.06,3.24-14.53,0,0,6.66-7.3,8.6-15.57Z"/><path class="cls-1" d="M134.08,54.39a17,17,0,0,1,2.22,12,15.57,15.57,0,0,1-5.12,9.28,2.69,2.69,0,0,0-.8,3.08c1.21,3,3,9,.41,13.61a20.84,20.84,0,0,1-5.92,7,2.71,2.71,0,0,0-.9,3.19c1.16,2.89,2.6,8.25-.32,12.52-4.22,6.17-3.9,9.41-12.34,10.06-7.52.58-41.74-.56-49-.82a25.11,25.11,0,0,1-2.74-.24C52.17,123.07,17.62,118,13,114.8c-5.05-3.47-8.26-5.41-12.62-13A2.62,2.62,0,0,1,0,100.45V52.86a2.71,2.71,0,0,1,.1-.75c.45-1.6,2.41-7.83,6.07-10.65,4-3.06,44.33-31.53,48.9-34.75A4.86,4.86,0,0,1,56,6.29s6.28-1.6,8.42-1.83c4.67-.5,18.78,0,18.78,0s.25,0,.37,0c4,.25,14.22-1.08,17.07,17.81a2.72,2.72,0,0,0,2.72,2.3L124,24.27a2.25,2.25,0,0,1,.63.06c2.15.48,14,3.62,13.32,14.94a2.36,2.36,0,0,0,0,.46c.13,1.2.56,7.3-3.45,11.34A2.7,2.7,0,0,0,134.08,54.39Z"/></g></g></svg>