<svg xmlns="http://www.w3.org/2000/svg" xmlns:xlink="http://www.w3.org/1999/xlink" viewBox="0 0 277.8 277.8"><defs><style>.cls-1{fill:url(#Безымянный_градиент);}.cls-2{fill:url(#Безымянный_градиент_4);}.cls-3{fill:#273d47;}.cls-4{fill:url(#Безымянный_градиент_5);}.cls-5{fill:url(#Безымянный_градиент_4-2);}.cls-6{fill:url(#Безымянный_градиент_5-2);}.cls-7{fill:#73dedc;}.cls-8{fill:url(#Безымянный_градиент_6);}.cls-9{fill:#82fefa;}.cls-10{fill:#64bebe;}.cls-11{fill:#365d65;}.cls-12{fill:#181d29;}.cls-13{fill:#457d83;}.cls-14{fill:#fff;}.cls-15{fill:url(#Безымянный_градиент_11);}.cls-16{fill:url(#Безымянный_градиент_25);}.cls-17{fill:url(#Безымянный_градиент_10);}.cls-18{fill:url(#Безымянный_градиент_11-2);}.cls-19{fill:url(#Безымянный_градиент_12);}.cls-20{fill:url(#Безымянный_градиент_13);}.cls-21{fill:url(#Безымянный_градиент_14);}.cls-22{fill:url(#Безымянный_градиент_15);}.cls-23{fill:url(#Безымянный_градиент_25-2);}.cls-24{fill:url(#Безымянный_градиент_25-3);}.cls-25,.cls-26,.cls-34{fill:none;}.cls-26,.cls-34{stroke-miterlimit:10;}.cls-26{stroke:url(#Безымянный_градиент_26);}.cls-27{fill:url(#Безымянный_градиент_25-4);}.cls-28{fill:url(#Безымянный_градиент_25-5);}.cls-29{fill:url(#Безымянный_градиент_25-6);}.cls-30{fill:url(#Безымянный_градиент_25-7);}.cls-31{fill:url(#Безымянный_градиент_25-8);}.cls-32{fill:url(#Безымянный_градиент_25-9);}.cls-33{fill:url(#Безымянный_градиент_25-10);}.cls-34{stroke-width:0.84px;stroke:url(#Безымянный_градиент_26-2);}.cls-35,.cls-36,.cls-37,.cls-38,.cls-39,.cls-40,.cls-41,.cls-42{opacity:0.8;isolation:isolate;}.cls-35{fill:url(#Безымянный_градиент_27);}.cls-36{fill:url(#Безымянный_градиент_31);}.cls-37{fill:url(#Безымянный_градиент_29);}.cls-38{fill:url(#Безымянный_градиент_30);}.cls-39{fill:url(#Безымянный_градиент_31-2);}.cls-40{fill:url(#Безымянный_градиент_32);}.cls-41{fill:url(#Безымянный_градиент_33);}.cls-42{fill:url(#Безымянный_градиент_34);}.cls-43{fill:url(#Безымянный_градиент_70);}.cls-44{fill:#514501;}.cls-45{fill:url(#Безымянный_градиент_38);}</style><linearGradient id="Безымянный_градиент" x1="56.01" y1="451.88" x2="229.66" y2="676.09" gradientTransform="translate(0 -420)" gradientUnits="userSpaceOnUse"><stop offset="0" stop-color="#00e33d"/><stop offset="0.49" stop-color="#00cd35"/><stop offset="1" stop-color="#00a827"/></linearGradient><linearGradient id="Безымянный_градиент_4" x1="25.22" y1="527" x2="46.29" y2="566.15" gradientTransform="translate(0 -420)" gradientUnits="userSpaceOnUse"><stop offset="0.14" stop-color="#181d29"/><stop offset="0.27" stop-color="#2f4d56"/><stop offset="0.46" stop-color="#4c8c90"/><stop offset="0.64" stop-color="#63bdbe"/><stop offset="0.79" stop-color="#74e0de"/><stop offset="0.92" stop-color="#7ef6f3"/><stop offset="1" stop-color="#82fefa"/></linearGradient><linearGradient id="Безымянный_градиент_5" x1="-48.34" y1="555.93" x2="79.85" y2="582.71" gradientTransform="translate(0 -420)" gradientUnits="userSpaceOnUse"><stop offset="0.14" stop-color="#181d29"/><stop offset="0.21" stop-color="#1f2c37"/><stop offset="0.55" stop-color="#3c6b71"/><stop offset="0.71" stop-color="#488488"/><stop offset="0.76" stop-color="#4a888c"/><stop offset="0.81" stop-color="#509497"/><stop offset="0.87" stop-color="#59a9aa"/><stop offset="0.92" stop-color="#67c5c5"/><stop offset="0.97" stop-color="#78e9e7"/><stop offset="1" stop-color="#82fefa"/></linearGradient><linearGradient id="Безымянный_градиент_4-2" x1="223.31" y1="513.59" x2="252.67" y2="568.13" xlink:href="#Безымянный_градиент_4"/><linearGradient id="Безымянный_градиент_5-2" x1="165.69" y1="560.55" x2="282.9" y2="585.03" xlink:href="#Безымянный_градиент_5"/><linearGradient id="Безымянный_градиент_6" x1="141.42" y1="638.76" x2="166.76" y2="689.41" gradientTransform="translate(0 -420)" gradientUnits="userSpaceOnUse"><stop offset="0" stop-color="#181d29"/><stop offset="0" stop-color="#191f2a"/><stop offset="0.13" stop-color="#2e4b54"/><stop offset="0.25" stop-color="#3f7178"/><stop offset="0.38" stop-color="#4e9195"/><stop offset="0.52" stop-color="#5aa9ab"/><stop offset="0.66" stop-color="#62babb"/><stop offset="0.81" stop-color="#66c5c5"/><stop offset="1" stop-color="#68c8c8"/></linearGradient><linearGradient id="Безымянный_градиент_11" x1="164.32" y1="455.76" x2="87.51" y2="461.14" gradientTransform="translate(0 -420)" gradientUnits="userSpaceOnUse"><stop offset="0" stop-color="#82fefa"/><stop offset="0.06" stop-color="#74e0de"/><stop offset="0.17" stop-color="#5cadae"/><stop offset="0.29" stop-color="#478186"/><stop offset="0.4" stop-color="#365d64"/><stop offset="0.52" stop-color="#29414a"/><stop offset="0.63" stop-color="#1f2d38"/><stop offset="0.75" stop-color="#1a212d"/><stop offset="0.86" stop-color="#181d29"/></linearGradient><radialGradient id="Безымянный_градиент_25" cx="139.18" cy="489.71" r="4.69" gradientTransform="translate(0 -420)" gradientUnits="userSpaceOnUse"><stop offset="0.11" stop-color="#eeebe9"/><stop offset="0.23" stop-color="#ebe8e6"/><stop offset="0.34" stop-color="#e0dedc"/><stop offset="0.44" stop-color="#cecdcc"/><stop offset="0.52" stop-color="#bababa"/><stop offset="0.6" stop-color="#b0b1b1"/><stop offset="0.73" stop-color="#969899"/><stop offset="0.89" stop-color="#6c7171"/><stop offset="1" stop-color="#4c5354"/></radialGradient><linearGradient id="Безымянный_градиент_10" x1="117.21" y1="625.93" x2="134.99" y2="691.57" gradientTransform="translate(0 -420)" gradientUnits="userSpaceOnUse"><stop offset="0.14" stop-color="#181d29"/><stop offset="0.24" stop-color="#2a444d"/><stop offset="0.45" stop-color="#4b8b8f"/><stop offset="0.61" stop-color="#60b7b8"/><stop offset="0.68" stop-color="#68c8c8"/><stop offset="0.79" stop-color="#74e1df"/><stop offset="0.92" stop-color="#7ef6f3"/><stop offset="1" stop-color="#82fefa"/></linearGradient><linearGradient id="Безымянный_градиент_11-2" x1="131.51" y1="455.82" x2="52.86" y2="461.32" xlink:href="#Безымянный_градиент_11"/><radialGradient id="Безымянный_градиент_12" cx="111.28" cy="593.58" r="86.26" gradientTransform="translate(0 -420)" gradientUnits="userSpaceOnUse"><stop offset="0" stop-color="#181d29"/><stop offset="0.09" stop-color="#1c2530"/><stop offset="0.24" stop-color="#263a44"/><stop offset="0.28" stop-color="#2a434c"/><stop offset="0.37" stop-color="#31535b"/><stop offset="0.55" stop-color="#457c81"/><stop offset="0.78" stop-color="#63bdbd"/><stop offset="1" stop-color="#82fefa"/></radialGradient><radialGradient id="Безымянный_градиент_13" cx="195.05" cy="508.2" r="65.24" gradientTransform="translate(0 -420)" gradientUnits="userSpaceOnUse"><stop offset="0" stop-color="#82fefa"/><stop offset="0.16" stop-color="#6bcdcd"/><stop offset="0.38" stop-color="#4e8f93"/><stop offset="0.58" stop-color="#375e65"/><stop offset="0.76" stop-color="#263b44"/><stop offset="0.91" stop-color="#1c2530"/><stop offset="1" stop-color="#181d29"/></radialGradient><radialGradient id="Безымянный_градиент_14" cx="394.67" cy="199.19" r="65.69" gradientTransform="matrix(0.69, 0.73, -0.92, 0.87, 126.76, -247.88)" gradientUnits="userSpaceOnUse"><stop offset="0" stop-color="#82fefa"/><stop offset="0.15" stop-color="#67c4c4"/><stop offset="0.31" stop-color="#4f9195"/><stop offset="0.46" stop-color="#3b686e"/><stop offset="0.61" stop-color="#2c4750"/><stop offset="0.75" stop-color="#21303a"/><stop offset="0.89" stop-color="#1a222d"/><stop offset="1" stop-color="#181d29"/></radialGradient><radialGradient id="Безымянный_градиент_15" cx="120.12" cy="546.4" r="70.37" gradientTransform="translate(0 -420)" gradientUnits="userSpaceOnUse"><stop offset="0" stop-color="#181d29"/><stop offset="0.31" stop-color="#191f2b"/><stop offset="0.42" stop-color="#1c2631"/><stop offset="0.5" stop-color="#22313c"/><stop offset="0.56" stop-color="#29424c"/><stop offset="0.61" stop-color="#33575f"/><stop offset="0.64" stop-color="#3c6970"/><stop offset="0.73" stop-color="#549ea1"/><stop offset="0.81" stop-color="#68c7c7"/><stop offset="0.89" stop-color="#76e5e3"/><stop offset="0.95" stop-color="#7ff8f4"/><stop offset="1" stop-color="#82fefa"/></radialGradient><radialGradient id="Безымянный_градиент_25-2" cx="97.96" cy="503.1" r="4.69" xlink:href="#Безымянный_градиент_25"/><radialGradient id="Безымянный_градиент_25-3" cx="72.49" cy="538.16" r="4.69" xlink:href="#Безымянный_градиент_25"/><linearGradient id="Безымянный_градиент_26" x1="87.99" y1="502.92" x2="190.33" y2="616.58" gradientTransform="translate(0 -420)" gradientUnits="userSpaceOnUse"><stop offset="0" stop-color="#82fefa"/><stop offset="0.17" stop-color="#72dcdb"/><stop offset="0.56" stop-color="#4a878b"/><stop offset="1" stop-color="#181d29"/></linearGradient><radialGradient id="Безымянный_градиент_25-4" cx="72.49" cy="581.5" r="4.69" xlink:href="#Безымянный_градиент_25"/><radialGradient id="Безымянный_градиент_25-5" cx="97.96" cy="616.56" r="4.68" xlink:href="#Безымянный_градиент_25"/><radialGradient id="Безымянный_градиент_25-6" cx="139.18" cy="629.95" r="4.69" xlink:href="#Безымянный_градиент_25"/><radialGradient id="Безымянный_градиент_25-7" cx="180.39" cy="616.57" r="4.69" xlink:href="#Безымянный_градиент_25"/><radialGradient id="Безымянный_градиент_25-8" cx="205.86" cy="581.5" r="4.7" xlink:href="#Безымянный_градиент_25"/><radialGradient id="Безымянный_градиент_25-9" cx="205.87" cy="538.16" r="4.69" xlink:href="#Безымянный_градиент_25"/><radialGradient id="Безымянный_градиент_25-10" cx="180.4" cy="503.1" r="4.69" xlink:href="#Безымянный_градиент_25"/><linearGradient id="Безымянный_градиент_26-2" x1="96.21" y1="512.02" x2="182.3" y2="607.63" xlink:href="#Безымянный_градиент_26"/><radialGradient id="Безымянный_градиент_27" cx="257.99" cy="76.61" r="10.99" gradientTransform="matrix(0.72, 0.69, -2.79, 2.9, 105.62, -321.7)" gradientUnits="userSpaceOnUse"><stop offset="0" stop-color="#fff"/><stop offset="0.08" stop-color="#f3f3f3" stop-opacity="0.95"/><stop offset="0.21" stop-color="#d4d4d4" stop-opacity="0.83"/><stop offset="0.39" stop-color="#a2a2a2" stop-opacity="0.63"/><stop offset="0.61" stop-color="#5c5c5c" stop-opacity="0.36"/><stop offset="0.86" stop-color="#040404" stop-opacity="0.02"/><stop offset="0.87" stop-opacity="0"/></radialGradient><radialGradient id="Безымянный_градиент_31" cx="399.14" cy="220.45" r="26.94" gradientTransform="matrix(0.72, 0.7, -3.23, 3.31, 648.13, -785.23)" gradientUnits="userSpaceOnUse"><stop offset="0" stop-color="#fff"/><stop offset="0.01" stop-color="#fcfcfc" stop-opacity="0.99"/><stop offset="0.12" stop-color="#c2c2c2" stop-opacity="0.76"/><stop offset="0.24" stop-color="#8e8e8e" stop-opacity="0.56"/><stop offset="0.36" stop-color="#636363" stop-opacity="0.39"/><stop offset="0.48" stop-color="#3f3f3f" stop-opacity="0.25"/><stop offset="0.6" stop-color="#232323" stop-opacity="0.14"/><stop offset="0.73" stop-color="#101010" stop-opacity="0.06"/><stop offset="0.85" stop-color="#040404" stop-opacity="0.02"/><stop offset="0.97" stop-opacity="0"/></radialGradient><radialGradient id="Безымянный_градиент_29" cx="9.14" cy="1310.7" r="69.13" gradientTransform="translate(0 -340.61) scale(1 0.36)" gradientUnits="userSpaceOnUse"><stop offset="0" stop-color="#fff"/><stop offset="0.12" stop-color="#e8e8e8" stop-opacity="0.91"/><stop offset="0.36" stop-color="#adadad" stop-opacity="0.68"/><stop offset="0.7" stop-color="#4f4f4f" stop-opacity="0.31"/><stop offset="0.97" stop-opacity="0"/></radialGradient><radialGradient id="Безымянный_градиент_30" cx="128.59" cy="-1529.37" r="43.78" gradientTransform="matrix(-0.03, 1, -0.28, -0.01, -293.73, -133.11)" gradientUnits="userSpaceOnUse"><stop offset="0" stop-color="#fff"/><stop offset="0.11" stop-color="#ebebeb" stop-opacity="0.92"/><stop offset="0.32" stop-color="#b7b7b7" stop-opacity="0.72"/><stop offset="0.63" stop-color="#646464" stop-opacity="0.39"/><stop offset="0.97" stop-opacity="0"/></radialGradient><radialGradient id="Безымянный_градиент_31-2" cx="159.68" cy="425.21" r="84.61" gradientTransform="translate(0 -420)" xlink:href="#Безымянный_градиент_31"/><radialGradient id="Безымянный_градиент_32" cx="253.59" cy="1831.56" r="91.81" gradientTransform="matrix(1, 0.04, -0.01, 0.24, 1.25, -317.69)" gradientUnits="userSpaceOnUse"><stop offset="0" stop-color="#fff"/><stop offset="0.08" stop-color="#f6f6f6" stop-opacity="0.96"/><stop offset="0.22" stop-color="#dcdcdc" stop-opacity="0.86"/><stop offset="0.4" stop-color="#b2b2b2" stop-opacity="0.7"/><stop offset="0.6" stop-color="#797979" stop-opacity="0.47"/><stop offset="0.83" stop-color="#303030" stop-opacity="0.19"/><stop offset="0.97" stop-opacity="0"/></radialGradient><radialGradient id="Безымянный_градиент_33" cx="223.48" cy="37.58" r="38.76" gradientTransform="matrix(0.72, 0.69, -2.79, 2.9, -12.73, -223.89)" gradientUnits="userSpaceOnUse"><stop offset="0" stop-color="#fff"/><stop offset="0.06" stop-color="#f3f3f3" stop-opacity="0.95"/><stop offset="0.16" stop-color="#d4d4d4" stop-opacity="0.83"/><stop offset="0.3" stop-color="#a2a2a2" stop-opacity="0.63"/><stop offset="0.46" stop-color="#5c5c5c" stop-opacity="0.36"/><stop offset="0.65" stop-color="#040404" stop-opacity="0.02"/><stop offset="0.66" stop-opacity="0"/></radialGradient><radialGradient id="Безымянный_градиент_34" cx="20.99" cy="615.21" fx="-15.843003315446971" fy="602.4956974464046" r="72.05" gradientTransform="translate(0 -420)" gradientUnits="userSpaceOnUse"><stop offset="0" stop-color="#fff"/><stop offset="0.07" stop-color="#f6f6f6" stop-opacity="0.96"/><stop offset="0.2" stop-color="#ddd" stop-opacity="0.87"/><stop offset="0.38" stop-color="#b5b5b5" stop-opacity="0.71"/><stop offset="0.59" stop-color="#7d7d7d" stop-opacity="0.49"/><stop offset="0.8" stop-color="#404040" stop-opacity="0.25"/><stop offset="1" stop-opacity="0"/></radialGradient><radialGradient id="Безымянный_градиент_70" cx="137.94" cy="140.77" r="62.9" gradientTransform="translate(-1.18 -3.15) scale(1.02 1.02)" gradientUnits="userSpaceOnUse"><stop offset="0" stop-color="#82fefa"/><stop offset="0.31" stop-color="#80fcf8"/><stop offset="0.48" stop-color="#78f4f1"/><stop offset="0.61" stop-color="#6ae7e5"/><stop offset="0.73" stop-color="#57d5d4"/><stop offset="0.83" stop-color="#3ebdbd"/><stop offset="0.92" stop-color="#20a0a2"/><stop offset="1" stop-color="#008186"/></radialGradient><linearGradient id="Безымянный_градиент_38" x1="100.83" y1="136.15" x2="178.33" y2="136.15" gradientUnits="userSpaceOnUse"><stop offset="0" stop-color="#00e751"/><stop offset="0.5" stop-color="#00cb47"/><stop offset="1" stop-color="#009a34"/></linearGradient></defs><title>Ресурс 1</title><g id="Слой_2" data-name="Слой 2"><g id="Слой_1-2" data-name="Слой 1"><circle class="cls-1" cx="138.9" cy="138.9" r="138.9"/><path class="cls-2" d="M66.1,118.9c0,.1-.1.2-.1.4a78.7,78.7,0,0,0-2.6,14.5L44.1,132l-39.8.2,30.8-13.3,12.5-5.4Z"/><path class="cls-3" d="M145.9,215.5l1.8,20.3a81.24,81.24,0,0,1-8.6.4,83.15,83.15,0,0,1-8.7-.4l1.9-20.3c2.3.2,4.5.3,6.9.3h0C141.4,215.8,143.7,215.7,145.9,215.5Z"/><path class="cls-3" d="M234.2,132.2a81.24,81.24,0,0,1,.4,8.6,83.15,83.15,0,0,1-.4,8.7v.1l-19.5-1.8a71.43,71.43,0,0,0,.4-8c0-2-.1-3.9-.2-5.9Z"/><path class="cls-3" d="M63.6,147.3,44.1,149h0c-.2-2.8-.4-5.5-.4-8.3a87.69,87.69,0,0,1,.4-8.8l19.3,1.8c-.2,2-.2,4-.2,6A63.39,63.39,0,0,0,63.6,147.3Z"/><path class="cls-4" d="M66.6,162.4,47.7,168,4.2,149.3H44.1v-.2h0l19.5-1.8A77.66,77.66,0,0,0,66.6,162.4Z"/><path class="cls-5" d="M274.2,132.2H234.3l-17.7,1.6-1.7.1a76.13,76.13,0,0,0-2.7-15h0l10.3-3.1,8.1-2.4Z"/><path class="cls-6" d="M274,149.3,230.7,168l-18.9-5.6a72.81,72.81,0,0,0,3-14.6l19.5,1.8v-.1Z"/><polygon class="cls-3" points="119.5 6.3 109.9 28.8 106.2 24.6 111.2 12.9 119.5 6.3"/><polygon class="cls-3" points="108.5 249.4 118.2 272.1 109.9 265.4 104.8 253.6 108.5 249.4"/><polygon class="cls-3" points="265.8 112.2 272.3 120.5 249.9 110.9 254.1 107.2 265.8 112.2"/><polygon class="cls-7" points="271.8 161.1 265.1 169.5 253.2 174.6 249.1 170.9 271.8 161.1"/><path class="cls-8" d="M160.6,212.7l5.8,19.5-18.7,43.5V235.8l-1.8-20.3A81.17,81.17,0,0,0,160.6,212.7Z"/><path class="cls-9" d="M249.1,170.9l4.1,3.7a120.3,120.3,0,0,1-79.6,79l-3.7-4.1A115.1,115.1,0,0,0,249.1,170.9Z"/><polygon class="cls-7" points="169.9 249.4 173.6 253.6 168.5 265.4 160.2 272.1 169.9 249.4"/><path class="cls-10" d="M108.5,249.4l-3.7,4.1a119.89,119.89,0,0,1-79.6-79l4.1-3.7A114.55,114.55,0,0,0,108.5,249.4Z"/><polygon class="cls-7" points="29.3 170.9 25.2 174.6 13.3 169.5 6.5 161.1 29.3 170.9"/><path class="cls-11" d="M109.9,265.4l8.3,6.7A134.5,134.5,0,0,1,6.5,161.1l6.8,8.4a129.78,129.78,0,0,0,96.6,95.9Z"/><path class="cls-12" d="M274.7,123.7l-26.5-11.4A112.62,112.62,0,0,0,167,30.4L155.5,3.8A136.5,136.5,0,0,1,274.7,123.7Zm-24.8-12.8,22.4,9.6A134.49,134.49,0,0,0,158.8,6.3l9.7,22.5a114,114,0,0,1,81.4,82.1Z"/><path class="cls-12" d="M247.4,169.5l27-11.6A136.53,136.53,0,0,1,156.9,274.6l11.5-26.8A112.62,112.62,0,0,0,247.4,169.5Zm24.5-8.4-22.8,9.8A114.64,114.64,0,0,1,170,249.4l-9.8,22.7a134.72,134.72,0,0,0,111.7-111Z"/><path class="cls-10" d="M272.3,120.5l-6.5-8.2a129.49,129.49,0,0,0-98.7-99.4l-8.3-6.6A134.49,134.49,0,0,1,272.3,120.5Z"/><path class="cls-11" d="M265.1,169.5l6.8-8.4a134.5,134.5,0,0,1-111.7,111l8.3-6.7A129.63,129.63,0,0,0,265.1,169.5Z"/><path class="cls-13" d="M265.8,112.3l-11.6-5a119.54,119.54,0,0,0-82-82.7l-5-11.7A129.51,129.51,0,0,1,265.8,112.3Z"/><path class="cls-13" d="M253.2,174.6l11.9-5.1a129.48,129.48,0,0,1-96.6,95.9l5.1-11.8A120.3,120.3,0,0,0,253.2,174.6Z"/><path class="cls-11" d="M254.1,107.2l-4.2,3.6a114,114,0,0,0-81.4-82.1l3.6-4.2A119.36,119.36,0,0,1,254.1,107.2Z"/><path class="cls-13" d="M214.9,133.9c.1,2,.2,3.9.2,5.9a71.43,71.43,0,0,1-.4,8,72.81,72.81,0,0,1-3,14.6l-.3.9-1.1-.4a2.92,2.92,0,0,0,.2-.9,4.71,4.71,0,0,0-4.1-5.2,4.64,4.64,0,0,0-4.7,2.6,4.88,4.88,0,0,0-.3.7l-1.1-.4.2-.6a64.09,64.09,0,0,0,2.6-12.3c.2-2.3.4-4.6.4-6.9,0-1.6-.1-3.2-.2-4.9a68.91,68.91,0,0,0-2.2-12.7c-.2-.8-.5-1.6-.7-2.4l1.1-.4a5.41,5.41,0,0,0,1.5,2.2,5,5,0,0,0,4.4.9,4.67,4.67,0,0,0,3-5.9c0-.1-.1-.2-.1-.4l1.1-.4.9,3h0A84.06,84.06,0,0,1,214.9,133.9Z"/><path class="cls-13" d="M210.3,162.9l1.1.4a75.83,75.83,0,0,1-27.6,38l-.7-.9a4.66,4.66,0,0,0-5.4-7.6.1.1,0,0,0-.1.1l-.7-.9a64.16,64.16,0,0,0,23.4-32.2l1.1.4a4.68,4.68,0,1,0,8.9,2.9v-.2Z"/><path class="cls-13" d="M211.3,115.9l-1.1.4a4.76,4.76,0,0,0-6.1-2.6,4.65,4.65,0,0,0-2.7,5.8l-1.1.4A63.85,63.85,0,0,0,177.2,88l.7-.9a4.65,4.65,0,0,0,5.2-7.7l.6-1A75,75,0,0,1,211.3,115.9Z"/><path class="cls-14" d="M207.3,157a4.68,4.68,0,0,1,3.2,5,2.92,2.92,0,0,1-.2.9,4.71,4.71,0,0,1-9-2.8V160a4.88,4.88,0,0,0,.3-.7A4.87,4.87,0,0,1,207.3,157Z"/><path class="cls-14" d="M210.3,116.7a4.63,4.63,0,0,1-3,5.9,4.44,4.44,0,0,1-4.4-.9,4.82,4.82,0,0,1-1.5-2.2,4.66,4.66,0,0,1,8.7-3.3A1.69,1.69,0,0,1,210.3,116.7Z"/><path class="cls-14" d="M183.2,79.3a4.7,4.7,0,0,1-5.2,7.8c-.1-.1-.2-.1-.3-.2a4.67,4.67,0,0,1,5.3-7.7A.35.35,0,0,0,183.2,79.3Z"/><path class="cls-14" d="M184.2,193.8a4.72,4.72,0,1,1-6.6-1h0A4.67,4.67,0,0,1,184.2,193.8Z"/><path class="cls-13" d="M183.2,200.3l.7.9a75.78,75.78,0,0,1-38,14.2c-2.2.2-4.5.3-6.7.3h0v-1.1a4.7,4.7,0,1,0,0-9.4v-1.1a54.41,54.41,0,0,0,5.7-.3,64.27,64.27,0,0,0,32.1-12l.7.9a4.77,4.77,0,0,0-1,6.6,4.71,4.71,0,0,0,6.5,1Z"/><path class="cls-13" d="M183.8,78.3l-.7.9a4.71,4.71,0,1,0-5.7,7.5c.1,0,.1.1.2.1s.2.1.3.2l-.7.9a63.61,63.61,0,0,0-32.1-12.2q-3-.3-6-.3V74.3a4.7,4.7,0,1,0,0-9.4V63.7c2.4,0,4.7.1,7,.3A74.12,74.12,0,0,1,161,66.9,79.91,79.91,0,0,1,183.8,78.3Z"/><polygon class="cls-9" points="167.1 12.9 172.1 24.6 168.5 28.8 158.8 6.3 167.1 12.9"/><path class="cls-15" d="M147.8,5.9l18.7,43.3L161.2,67a76.94,76.94,0,0,0-14.9-2.9L148,45.6Z"/><path class="cls-14" d="M152.6,136.7l1.7-.5A4.8,4.8,0,0,1,152.6,136.7Z"/><path class="cls-9" d="M151.7,98.9a5.37,5.37,0,0,1,1.8,7.3l-6.4,11.1a7.49,7.49,0,0,0-.4-1.6,8,8,0,0,0-4.7-4.8,12.84,12.84,0,0,0-4.3-1l5.2-8.9h0l.4-.7a5.41,5.41,0,0,1,7.4-2l.8.5.2.1Z"/><path class="cls-3" d="M147.9,45.7l-1.7,18.5c-2.3-.2-4.7-.3-7-.3h0q-3.45,0-6.9.3l-1.7-18.5c2.8-.2,5.7-.4,8.6-.4A83.15,83.15,0,0,1,147.9,45.7Z"/><circle class="cls-16" cx="139.2" cy="69.7" r="4.7"/><circle class="cls-14" cx="139.2" cy="209.9" r="4.7"/><path class="cls-13" d="M139.2,63.8V65a4.7,4.7,0,1,0,0,9.4v1.2a54.9,54.9,0,0,0-5.8.3,64.14,64.14,0,0,0-32.3,12.3l-.7-1c.1-.1.2-.1.3-.2a4.64,4.64,0,0,0,.5-6.6,4.72,4.72,0,0,0-6-.9l-.7-.9a76.6,76.6,0,0,1,22.7-11.3,70.7,70.7,0,0,1,15.1-2.9,53.56,53.56,0,0,1,6.9-.6Z"/><path class="cls-13" d="M139.2,204.1v1.1a4.7,4.7,0,1,0,0,9.4v1.2q-3.45,0-6.9-.3a75.09,75.09,0,0,1-37.8-14.2l.7-.9a4.71,4.71,0,1,0,5.7-7.5c-.1,0-.1-.1-.2-.1l.7-.9a63.93,63.93,0,0,0,32,12C135.3,204,137.2,204.1,139.2,204.1Z"/><path class="cls-17" d="M132.3,215.4l-1.9,20.3.1,39.8-18.7-43.3,5.8-19.5A75.88,75.88,0,0,0,132.3,215.4Z"/><path class="cls-18" d="M132.3,64.1A77.47,77.47,0,0,0,117.2,67l-5.3-17.8,1.3-3.1L130.6,5.7V45.6l.1,1.3Z"/><path class="cls-12" d="M122.8,3.9,111.3,30.5a112.65,112.65,0,0,0-81.2,81.8L3.6,123.8A136.3,136.3,0,0,1,122.8,3.9ZM109.9,28.8l9.7-22.5A134.49,134.49,0,0,0,6.1,120.5l22.4-9.7A113.65,113.65,0,0,1,109.9,28.8Z"/><path class="cls-12" d="M109.9,247.8l11.6,26.8A136.53,136.53,0,0,1,4,157.9l27,11.6A112.66,112.66,0,0,0,109.9,247.8Zm8.3,24.3-9.8-22.7a114.78,114.78,0,0,1-79.2-78.5L6.4,161.1A134.83,134.83,0,0,0,118.2,272.1Z"/><path class="cls-9" d="M119.5,6.3l-8.3,6.6a129.51,129.51,0,0,0-98.6,99.4l-6.5,8.3A134.39,134.39,0,0,1,119.5,6.3Z"/><path class="cls-19" d="M117.7,212.7l-5.8,19.5A95.48,95.48,0,0,1,47.7,168l18.9-5.6.3.9A76.3,76.3,0,0,0,117.7,212.7Z"/><path class="cls-20" d="M166.4,49.2,161.1,67a76.16,76.16,0,0,1,50.2,48.9l.9,3,18.4-5.5A95.68,95.68,0,0,0,166.4,49.2Z"/><path class="cls-21" d="M211.4,163.3a76.3,76.3,0,0,1-50.8,49.4l5.8,19.5A95.48,95.48,0,0,0,230.6,168l-18.9-5.7A1.69,1.69,0,0,1,211.4,163.3Z"/><path class="cls-22" d="M117.2,67.1c-1.8.5-3.6,1.2-5.4,1.9A75.87,75.87,0,0,0,70,108.4c-1.1,2.5-2.1,5.1-3,7.7-.3,1-.7,2-.9,3L55.7,116l-8-2.4a95.48,95.48,0,0,1,64.2-64.2l3.9,13Z"/><path class="cls-13" d="M111.2,12.9l-5,11.7a119.18,119.18,0,0,0-82,82.7l-11.6,5a129.51,129.51,0,0,1,98.6-99.4Z"/><path class="cls-13" d="M104.8,253.6l5.1,11.8a129.48,129.48,0,0,1-96.6-95.9l11.9,5.1A119.89,119.89,0,0,0,104.8,253.6Z"/><path class="cls-11" d="M106.2,24.6l3.7,4.2a114.12,114.12,0,0,0-81.4,82.1l-4.2-3.6A119,119,0,0,1,106.2,24.6Z"/><path class="cls-23" d="M101.8,80.3a4.77,4.77,0,0,1-1,6.6c-.1.1-.2.1-.3.2a4.72,4.72,0,1,1,1.3-6.8Z"/><path class="cls-14" d="M100.7,192.7a4.72,4.72,0,1,1-6.6,1h0A4.86,4.86,0,0,1,100.7,192.7Z"/><path class="cls-13" d="M101.4,191.8l-.7.9a4.75,4.75,0,0,0-6.5,1.3,4.67,4.67,0,0,0,1,6.2l-.7.9a75.83,75.83,0,0,1-27.6-38l1.1-.4a4.71,4.71,0,1,0,9-2.8v-.1l1.1-.4A63.49,63.49,0,0,0,101.4,191.8Z"/><path class="cls-13" d="M100.4,87.1l.7,1a64.1,64.1,0,0,0-23,31.9l-1.1-.4a4.75,4.75,0,1,0-8.9-3.3l-1.1-.4A75.64,75.64,0,0,1,94.5,78.3l.7.9a4.75,4.75,0,0,0-1,6.6,4.83,4.83,0,0,0,6.2,1.3Z"/><path class="cls-13" d="M77.8,159c.1.2.1.4.2.6l-1.1.4-.3-.6a4.67,4.67,0,0,0-6.3-2.1,4.78,4.78,0,0,0-2.6,4.8,2.92,2.92,0,0,0,.2.9l-1.1.4-.3-.9a75,75,0,0,1-3.4-22.6c0-2,.1-4,.2-6A74.18,74.18,0,0,1,66,119.1l.9-3,1.1.4c0,.1-.1.2-.1.4a4.47,4.47,0,0,0,0,2.8,4.68,4.68,0,0,0,5.9,3.1,5.07,5.07,0,0,0,1.6-.9h0a4.82,4.82,0,0,0,1.5-2.2l1.1.4a21.72,21.72,0,0,0-.7,2.4h0a59.38,59.38,0,0,0-2.2,12.6c-.1,1.6-.2,3.3-.2,5,0,2.2.1,4.4.3,6.5A60.9,60.9,0,0,0,77.8,159Z"/><path class="cls-24" d="M73.9,113.7a4.67,4.67,0,0,1,3,5.9,4.53,4.53,0,0,1-1.5,2.1h0a4.73,4.73,0,0,1-6.6-.6,5.07,5.07,0,0,1-.9-1.6,4.47,4.47,0,0,1,0-2.8c0-.1.1-.2.1-.4A4.9,4.9,0,0,1,73.9,113.7Z"/><path class="cls-14" d="M77,160a4.68,4.68,0,0,1-8.9,2.9v-.1a2.92,2.92,0,0,1-.2-.9,4.71,4.71,0,0,1,4.1-5.2,4.64,4.64,0,0,1,4.7,2.6A4.88,4.88,0,0,0,77,160Z"/><polygon class="cls-3" points="28.4 110.9 6.1 120.5 12.6 112.3 24.2 107.3 28.4 110.9"/><line class="cls-25" x1="147.7" y1="235.8" x2="145.9" y2="215.5"/><line class="cls-25" x1="234.2" y1="149.6" x2="214.7" y2="147.8"/><line class="cls-25" x1="63.5" y1="133.8" x2="44.1" y2="132"/><line class="cls-25" x1="234.2" y1="132.2" x2="214.9" y2="133.9"/><line class="cls-25" x1="63.6" y1="147.3" x2="44.1" y2="149.1"/><path class="cls-25" d="M230.7,168a95.48,95.48,0,0,1-64.2,64.2"/><path class="cls-25" d="M211.8,162.4l18.9,5.6L274,149.3l-39.8.2a84.42,84.42,0,0,0,.4-8.7,82.5,82.5,0,0,0-.4-8.6h39.9l-43.5-18.7"/><path class="cls-25" d="M130.4,235.8a84.42,84.42,0,0,0,8.7.4,82.5,82.5,0,0,0,8.6-.4v39.9l18.7-43.5-5.8-19.5"/><path class="cls-25" d="M111.9,232.2A95.48,95.48,0,0,1,47.7,168L4.2,149.3H44.1v-.2c-.2-2.8-.4-5.5-.4-8.3v-2.4c0-2.1.2-4.3.4-6.4l-39.8.2,30.9-13.3,12.5-5.4"/><polyline class="cls-25" points="132.3 215.4 130.4 235.8 130.6 275.6 111.9 232.2 117.7 212.7"/><path class="cls-25" d="M66.1,118.9l-18.4-5.5a95.68,95.68,0,0,1,64.2-64.2"/><polyline class="cls-25" points="117.2 67.1 111.9 49.2 130.6 5.7 130.6 45.6"/><path class="cls-25" d="M132.3,64.1l-1.7-18.5c2.8-.2,5.7-.4,8.6-.4a85.08,85.08,0,0,1,8.8.4"/><polyline class="cls-25" points="146.2 64.1 147.9 45.7 147.8 5.9 166.4 49.2"/><path class="cls-25" d="M161.1,67l5.3-17.8a95.48,95.48,0,0,1,64.2,64.2l-18.4,5.5"/><path class="cls-25" d="M122.8,3.9,120.6,9l-9.3,21.6a115.54,115.54,0,0,0-11.8,3.7,112.2,112.2,0,0,0-69.4,78L3.6,123.8a124.67,124.67,0,0,1,2.2-13.4A136.33,136.33,0,0,1,122.8,3.9Z"/><path class="cls-25" d="M109.9,28.8a114.12,114.12,0,0,0-81.4,82.1"/><polyline class="cls-25" points="24.2 107.3 28.4 110.9 6.1 120.5"/><path class="cls-25" d="M12.6,112.3l-6.5,8.3A134.39,134.39,0,0,1,119.5,6.3l-9.7,22.5-3.7-4.2"/><path class="cls-25" d="M111.2,12.9l-5,11.7a119.18,119.18,0,0,0-82,82.7l-11.6,5a129.51,129.51,0,0,1,98.6-99.4Z"/><path class="cls-25" d="M274.7,123.7l-26.5-11.4A112.62,112.62,0,0,0,167,30.4L155.5,3.8A136.5,136.5,0,0,1,274.7,123.7Z"/><path class="cls-25" d="M272.3,120.5A134.49,134.49,0,0,0,158.8,6.3l9.7,22.5a114,114,0,0,1,81.4,82.1Z"/><path class="cls-25" d="M265.8,112.3l-11.6-5a119.54,119.54,0,0,0-82-82.7l-5-11.7A129.51,129.51,0,0,1,265.8,112.3Z"/><path class="cls-25" d="M274.4,157.9a134.72,134.72,0,0,1-6.4,26.5A136.58,136.58,0,0,1,208.3,257h0a136.81,136.81,0,0,1-51.4,17.7l11.5-26.8a111.85,111.85,0,0,0,71.3-58.6,114.6,114.6,0,0,0,7.6-19.7Z"/><path class="cls-25" d="M249.1,170.9A114.64,114.64,0,0,1,170,249.4l-9.8,22.7a134.5,134.5,0,0,0,111.7-111Z"/><path class="cls-25" d="M265.1,169.5a129.48,129.48,0,0,1-96.6,95.9l5.1-11.8a119.89,119.89,0,0,0,79.6-79Z"/><path class="cls-25" d="M121.5,274.6A136.43,136.43,0,0,1,4,157.9l27,11.6a112.62,112.62,0,0,0,79,78.3Z"/><path class="cls-25" d="M108.5,249.4a114.78,114.78,0,0,1-79.2-78.5L6.5,161.1a134.5,134.5,0,0,0,111.7,111Z"/><path class="cls-25" d="M109.9,265.4a129.63,129.63,0,0,1-96.6-95.9l11.9,5.1a120.3,120.3,0,0,0,79.6,79Z"/><line class="cls-25" x1="167.1" y1="12.9" x2="158.8" y2="6.3"/><line class="cls-25" x1="172.1" y1="24.6" x2="168.5" y2="28.8"/><line class="cls-25" x1="254.1" y1="107.2" x2="249.9" y2="110.9"/><line class="cls-25" x1="265.8" y1="112.2" x2="272.3" y2="120.5"/><line class="cls-25" x1="265.1" y1="169.5" x2="271.8" y2="161.1"/><line class="cls-25" x1="253.2" y1="174.6" x2="249.1" y2="170.9"/><line class="cls-25" x1="168.5" y1="265.4" x2="160.2" y2="272.1"/><line class="cls-25" x1="173.6" y1="253.6" x2="169.9" y2="249.4"/><line class="cls-25" x1="118.2" y1="272.1" x2="109.9" y2="265.4"/><line class="cls-25" x1="104.8" y1="253.6" x2="108.5" y2="249.4"/><line class="cls-25" x1="25.2" y1="174.6" x2="29.3" y2="170.9"/><line class="cls-25" x1="111.2" y1="12.9" x2="119.5" y2="6.3"/><line class="cls-25" x1="66.6" y1="162.4" x2="47.7" y2="168"/><path class="cls-26" d="M214.9,133.9a76.13,76.13,0,0,0-2.7-15h0l-.9-3A76.16,76.16,0,0,0,161.1,67a76.94,76.94,0,0,0-14.9-2.9c-2.3-.2-4.7-.3-7-.3h0q-3.45,0-6.9.3A77.47,77.47,0,0,0,117.2,67,76.16,76.16,0,0,0,67,115.9c-.3,1-.7,2-.9,3a74.18,74.18,0,0,0-2.7,14.8c-.2,2-.2,4-.2,6a75,75,0,0,0,3.4,22.6l.3.9a75.92,75.92,0,0,0,65.4,52.2c2.3.2,4.5.3,6.9.3h0c2.3,0,4.5-.1,6.7-.3a76,76,0,0,0,65.5-52.1l.3-.9a72.81,72.81,0,0,0,3-14.6,71.43,71.43,0,0,0,.4-8A38.8,38.8,0,0,0,214.9,133.9Z"/><path class="cls-25" d="M200.3,159.7l.2-.6a64.09,64.09,0,0,0,2.6-12.3c.2-2.3.4-4.6.4-6.9,0-1.6-.1-3.2-.2-4.9a66.46,66.46,0,0,0-2.2-12.6c-.2-.8-.5-1.6-.7-2.4a64.27,64.27,0,0,0-42.5-41.6,68.55,68.55,0,0,0-12.6-2.5q-3-.3-6-.3a54.9,54.9,0,0,0-5.8.3,63,63,0,0,0-12.8,2.5,64.41,64.41,0,0,0-42.5,41.7,21.72,21.72,0,0,0-.7,2.4h0a59.38,59.38,0,0,0-2.2,12.6c-.1,1.6-.2,3.3-.2,5,0,2.2.1,4.4.3,6.5A60,60,0,0,0,78,159.2c.1.2.1.4.2.6A64.16,64.16,0,0,0,133.5,204a55.25,55.25,0,0,0,11.5,0,64.65,64.65,0,0,0,55.3-44.3Z"/><circle class="cls-25" cx="139.2" cy="69.7" r="4.7"/><path class="cls-25" d="M95.2,79.3a4.65,4.65,0,0,1,6.5,1.1,4.74,4.74,0,0,1-1,6.5c-.1.1-.2.1-.3.2a4.69,4.69,0,0,1-5.2-7.8Z"/><path class="cls-25" d="M77,119.6a5.41,5.41,0,0,1-1.5,2.2h0a4.73,4.73,0,0,1-6.6-.6,5.07,5.07,0,0,1-.9-1.6,4.47,4.47,0,0,1,0-2.8c0-.1.1-.2.1-.4a4.76,4.76,0,0,1,6.1-2.6A4.66,4.66,0,0,1,77,119.6Z"/><path class="cls-27" d="M77,160a4.68,4.68,0,0,1-8.9,2.9v-.1a2.92,2.92,0,0,1-.2-.9,4.71,4.71,0,0,1,4.1-5.2,4.64,4.64,0,0,1,4.7,2.6A4.88,4.88,0,0,0,77,160Z"/><path class="cls-28" d="M100.7,192.7a4.72,4.72,0,1,1-6.6,1h0A4.86,4.86,0,0,1,100.7,192.7Z"/><circle class="cls-29" cx="139.2" cy="209.9" r="4.7"/><path class="cls-30" d="M183.2,200.3a4.72,4.72,0,1,1,1-6.6h0A4.85,4.85,0,0,1,183.2,200.3Z"/><path class="cls-31" d="M201.4,160a4.88,4.88,0,0,0,.3-.7,4.78,4.78,0,0,1,6.3-2.1,4.72,4.72,0,0,1,2.6,4.7,2.92,2.92,0,0,1-.2.9,4.77,4.77,0,0,1-5.9,3.1,4.6,4.6,0,0,1-3.1-5.9Z"/><path class="cls-32" d="M210.2,116.3c0,.1.1.2.1.4a4.63,4.63,0,0,1-3,5.9,4.44,4.44,0,0,1-4.4-.9,4.82,4.82,0,0,1-1.5-2.2,4.68,4.68,0,0,1,3.1-5.9A4.87,4.87,0,0,1,210.2,116.3Z"/><path class="cls-33" d="M183.2,79.3a4.7,4.7,0,0,1-5.2,7.8c-.1-.1-.2-.1-.3-.2a4.67,4.67,0,0,1,5.3-7.7A.35.35,0,0,0,183.2,79.3Z"/><path class="cls-25" d="M152.6,136.7h0a6,6,0,0,1-6.7-5.1,5.9,5.9,0,0,1,.7-3.7l9.8-17a5.94,5.94,0,0,1,10.3,5.9h0l-9.8,17a6,6,0,0,1-2.6,2.4h0A6.87,6.87,0,0,1,152.6,136.7Z"/><path class="cls-25" d="M178.5,129a5.46,5.46,0,0,1-.6,1.8l-3.9,6.7-3.5,6.1-.3.6a5.41,5.41,0,0,1-7.4,2l-.8-.5a5.45,5.45,0,0,1-2.3-6.9c.1-.2.1-.4.2-.5l2.6-4.5,5.1-8.9a5.41,5.41,0,0,1,7.4-2l.8.5A5.3,5.3,0,0,1,178.5,129Z"/><path class="cls-25" d="M125.3,99.4a5.26,5.26,0,0,1,1.2-1.4,5.61,5.61,0,0,1,6.3-.6l.8.5a5.45,5.45,0,0,1,2.4,6.6,3.55,3.55,0,0,1-.4.9l-2.7,4.6H119.3Z"/><path class="cls-34" d="M202.9,134.8a59.78,59.78,0,0,0-2.3-12.5h0a24.13,24.13,0,0,0-.8-2.5,64,64,0,0,0-42.2-41.1,60.21,60.21,0,0,0-12.5-2.5,58.28,58.28,0,0,0-5.9-.3h0a56.33,56.33,0,0,0-5.8.3,62.77,62.77,0,0,0-31.7,11.9,64.11,64.11,0,0,0-23.1,31.6,24.13,24.13,0,0,0-.8,2.5,58.47,58.47,0,0,0-2.2,12.5c-.1,1.7-.2,3.4-.2,5.1,0,2.1.1,4.3.3,6.3a60,60,0,0,0,2.6,12.6c.1.3.2.5.3.8a63.87,63.87,0,0,0,55,43.9,54.9,54.9,0,0,0,5.8.3h0a51.15,51.15,0,0,0,5.6-.3,63.86,63.86,0,0,0,55.1-43.9c.1-.3.2-.5.3-.8a63.9,63.9,0,0,0,2.5-12.3c.2-2.2.3-4.5.4-6.7C203.1,138.1,203,136.5,202.9,134.8Z"/><path class="cls-35" d="M115.8,62.2a65.77,65.77,0,0,1-4,6.7,78.52,78.52,0,0,0-17.3,9.4,76.07,76.07,0,0,0-24.5,30,115.33,115.33,0,0,1-14.3,7.6l-8-2.4a95.62,95.62,0,0,1,64.2-64.3Z"/><path class="cls-36" d="M268,184.4A136.58,136.58,0,0,1,208.3,257h0c-11.5,5.1-20.8,5.9-24.6,1.4-2.9-3.4-2.3-9.2,1-16.3a113.12,113.12,0,0,0,55.1-52.8C252.3,182.8,262.9,180.7,268,184.4Z"/><path class="cls-37" d="M66,119.3a78.7,78.7,0,0,0-2.6,14.5L44.1,132l-39.8.2,30.8-13.3C46.9,118.6,57.4,118.7,66,119.3Z"/><path class="cls-38" d="M130.7,46.9a38.37,38.37,0,0,1-17.5-.8L130.6,5.7V45.6Z"/><path class="cls-39" d="M216.7,27a65.1,65.1,0,0,1-14.3,19.4,110,110,0,0,0-35.4-16L155.5,3.8A136.64,136.64,0,0,1,216.7,27Z"/><path class="cls-40" d="M274.2,132.2H234.3l-17.7,1.6a56.47,56.47,0,0,1,6-17.9l8.1-2.4Z"/><path class="cls-41" d="M122.8,3.9,120.6,9c-6,8-13.1,16.6-21.1,25.3a112.46,112.46,0,0,0-61,55.1,239.1,239.1,0,0,1-32.7,21A136.44,136.44,0,0,1,122.8,3.9Z"/><path class="cls-42" d="M87.5,265.6A136.82,136.82,0,0,1,4,157.9l27,11.6a112.55,112.55,0,0,0,55.8,69.2C90.9,251.4,91.4,260.9,87.5,265.6Z"/><circle class="cls-43" cx="138.9" cy="139.8" r="63.87"/><polygon class="cls-44" points="139.44 94.78 150.22 126.39 185.07 126.39 156.87 145.91 167.64 177.52 139.44 157.99 111.25 177.52 122.02 145.91 93.82 126.39 128.67 126.39 139.44 94.78"/><polygon class="cls-45" points="139.58 101.02 148.73 127.86 178.33 127.86 154.38 144.44 163.53 171.28 139.58 154.7 115.63 171.28 124.78 144.44 100.83 127.86 130.43 127.86 139.58 101.02"/></g></g></svg>