<svg xmlns="http://www.w3.org/2000/svg" xmlns:xlink="http://www.w3.org/1999/xlink" viewBox="0 0 166.68 231.96"><defs><style>.cls-1{fill:url(#Безымянный_градиент_358);}.cls-2{fill:#fff;opacity:0.1;}</style><radialGradient id="Безымянный_градиент_358" cx="83.34" cy="115.98" r="100.99" gradientUnits="userSpaceOnUse"><stop offset="0" stop-color="#dbdbdb"/><stop offset="1" stop-color="#9296a6"/></radialGradient></defs><title>silver</title><g id="Слой_2" data-name="Слой 2"><g id="Слой_1-2" data-name="Слой 1"><path class="cls-1" d="M114,232l-3.48-4,.79-76,18.46-7.58V107.3l-27,9.78L93.9,145.19a8.93,8.93,0,0,1-17,.2l-9.68-28.46L40.74,107.3v36.77l15.78,7.73v77l-3,3S4.71,214,0,162.37c0-51.76.66-90.26.66-90.26S8.23,4.42,81.77,0c67.53,1,83.81,59.65,84.57,71.32s0,92.15,0,92.15S161.77,217.12,114,232Z"/><path class="cls-2" d="M85.71.13V151.44a8.79,8.79,0,0,1-8.78-6.06l-9.68-28.45L40.74,107.3v36.77l15.78,7.73v77l-3,3S4.71,214,0,162.37c0-51.76.66-90.26.66-90.26A90.14,90.14,0,0,1,20.51,28.38C32.51,14.3,51.58,1.81,81.77,0,83.1,0,84.42.06,85.71.13Z"/></g></g></svg>