<svg xmlns="http://www.w3.org/2000/svg" xmlns:xlink="http://www.w3.org/1999/xlink" viewBox="0 0 407.44 423.28"><defs><style>.cls-1{fill:none;stroke-width:10px;}.cls-1,.cls-2{stroke:#03041a;}.cls-2,.cls-3,.cls-5{fill:#fefefe;}.cls-2{stroke-width:4px;}.cls-13,.cls-4{fill:#03041a;}.cls-10,.cls-11,.cls-12,.cls-13,.cls-14,.cls-15,.cls-16,.cls-17,.cls-18,.cls-20,.cls-5,.cls-6,.cls-7,.cls-8,.cls-9{fill-rule:evenodd;}.cls-6{fill:url(#Безымянный_градиент);}.cls-7{fill:url(#Безымянный_градиент_2);}.cls-8{fill:url(#Безымянный_градиент_3);}.cls-9{fill:url(#Безымянный_градиент_4);}.cls-10{fill:url(#Безымянный_градиент_5);}.cls-11{fill:url(#Безымянный_градиент_6);}.cls-12{fill:url(#Безымянный_градиент_7);}.cls-14{fill:url(#Безымянный_градиент_8);}.cls-15{fill:url(#Безымянный_градиент_9);}.cls-16{fill:url(#Безымянный_градиент_10);}.cls-17{fill:url(#Безымянный_градиент_11);}.cls-18{fill:url(#Безымянный_градиент_12);}.cls-19{fill:url(#Безымянный_градиент_13);}.cls-20{fill:#fff;}</style><linearGradient id="Безымянный_градиент" x1="107.51" y1="-242.27" x2="297.71" y2="-242.27" gradientTransform="translate(0 588)" gradientUnits="userSpaceOnUse"><stop offset="0" stop-color="#0f3"/><stop offset="1" stop-color="#8f0021"/></linearGradient><linearGradient id="Безымянный_градиент_2" x1="184.57" y1="-240.74" x2="297.61" y2="-240.74" gradientTransform="translate(0 588)" gradientUnits="userSpaceOnUse"><stop offset="0" stop-color="#0f3"/><stop offset="1" stop-color="#00cd36"/></linearGradient><linearGradient id="Безымянный_градиент_3" x1="-18054.58" y1="20421.54" x2="-12559.44" y2="20421.54" gradientTransform="matrix(0.03, 0, 0, -0.03, 767.09, 749.9)" gradientUnits="userSpaceOnUse"><stop offset="0" stop-color="#00ff2c"/><stop offset="1" stop-color="#00cd36"/></linearGradient><linearGradient id="Безымянный_градиент_4" x1="-17223.12" y1="20371.68" x2="-18587.35" y2="20371.68" gradientTransform="matrix(0.03, 0, 0, -0.03, 767.09, 749.9)" gradientUnits="userSpaceOnUse"><stop offset="0" stop-color="#00f700"/><stop offset="1" stop-color="#0d0"/></linearGradient><linearGradient id="Безымянный_градиент_5" x1="-17127.21" y1="20958.2" x2="-18495.11" y2="20958.2" gradientTransform="matrix(0.03, 0, 0, -0.03, 767.09, 749.9)" gradientUnits="userSpaceOnUse"><stop offset="0" stop-color="#00f600"/><stop offset="1" stop-color="#00dc00"/></linearGradient><linearGradient id="Безымянный_градиент_6" x1="-16809.23" y1="21588.12" x2="-18594.8" y2="21588.12" gradientTransform="matrix(0.03, 0, 0, -0.03, 767.09, 749.9)" gradientUnits="userSpaceOnUse"><stop offset="0" stop-color="#00f700"/><stop offset="1" stop-color="#00de00"/></linearGradient><linearGradient id="Безымянный_градиент_7" x1="-17582.04" y1="22332.76" x2="-18276.79" y2="22332.76" gradientTransform="matrix(0.03, 0, 0, -0.03, 767.09, 749.9)" gradientUnits="userSpaceOnUse"><stop offset="0" stop-color="#00f300"/><stop offset="1" stop-color="#00dc00"/></linearGradient><linearGradient id="Безымянный_градиент_8" x1="30.01" y1="-450.75" x2="183.74" y2="-450.75" gradientTransform="translate(0 588)" gradientUnits="userSpaceOnUse"><stop offset="0" stop-color="#00ff32"/><stop offset="1" stop-color="#00c037"/></linearGradient><linearGradient id="Безымянный_градиент_9" x1="-18644.15" y1="19972.21" x2="-20008.38" y2="19972.21" gradientTransform="matrix(0.03, 0, 0, -0.03, 770.69, 738.33)" gradientUnits="userSpaceOnUse"><stop offset="0" stop-color="#00d80b"/><stop offset="1" stop-color="#00cd16"/></linearGradient><linearGradient id="Безымянный_градиент_10" x1="-18736.39" y1="20958.2" x2="-20104.28" y2="20958.2" gradientTransform="matrix(0.03, 0, 0, -0.03, 767.09, 749.9)" gradientUnits="userSpaceOnUse"><stop offset="0" stop-color="#00ec00"/><stop offset="1" stop-color="#00cd16"/></linearGradient><linearGradient id="Безымянный_градиент_11" x1="-18636.69" y1="21581.93" x2="-20422.27" y2="21581.93" gradientTransform="matrix(0.03, 0, 0, -0.03, 767.09, 749.9)" gradientUnits="userSpaceOnUse"><stop offset="0" stop-color="#00ec00"/><stop offset="1" stop-color="#00cc17"/></linearGradient><linearGradient id="Безымянный_градиент_12" x1="-18955.03" y1="22332.76" x2="-19649.8" y2="22332.76" gradientTransform="matrix(0.03, 0, 0, -0.03, 767.09, 749.9)" gradientUnits="userSpaceOnUse"><stop offset="0" stop-color="#00eb00"/><stop offset="1" stop-color="#00d114"/></linearGradient><linearGradient id="Безымянный_градиент_13" x1="-18642.55" y1="14060.4" x2="-18642.55" y2="16422.4" gradientTransform="matrix(0.03, 0, 0, -0.03, 767.09, 749.9)" gradientUnits="userSpaceOnUse"><stop offset="0" stop-color="#030311"/><stop offset="1" stop-color="#03041a"/></linearGradient></defs><title>logo_green</title><g id="Слой_2" data-name="Слой 2"><g id="Слой_1-2" data-name="Слой 1"><path class="cls-1" d="M394.41,139.7c-.6,4.7-1.3,9.4-2,13.9-.8,4.8-1.6,9.3-2.4,13.6-.2,1-.1.6-.4,2.3-1.5,8.8-3.1,17.3-12.1,24.3a32.82,32.82,0,0,1-3.8,2.7c-.4.3-.8.5-1,.7L339,219.5l-5.4,3.5v34.2a36.09,36.09,0,0,1,6.2,2.4,27.65,27.65,0,0,1,8.1,6.3c7.6,8.5,7.5,15.4,7.3,23.7v.1l34.5,22.9a28.52,28.52,0,0,1,12.2,29.2,29.1,29.1,0,0,1-4.2,10.3,27.47,27.47,0,0,1-12.8,10.5,29.12,29.12,0,0,1-8.2,2.1,28.27,28.27,0,0,1-8.2-.4l-43.2-8.4-2.2-.5-12.8-2.3c-2.9-.5-5.6-1-7.9-1.4a290.11,290.11,0,0,1-38.1,31.9,314.42,314.42,0,0,1-50.5,28.7l-7.4,3.3-4.9,2.2-4.9-2.2-7.4-3.3a324.37,324.37,0,0,1-48.8-27.4,295.61,295.61,0,0,1-36.9-30.1l-3.1.6c-.8.1-2.9.5-9.8,1.9l-43.2,8.5a29,29,0,0,1-21.3-4.3,29.69,29.69,0,0,1-7.9-7.9A27.37,27.37,0,0,1,14,343.3a28.29,28.29,0,0,1-.4-8.7,27.63,27.63,0,0,1,2.3-8.4c3.5-7.8,8.1-10.8,13.4-14.2a15.14,15.14,0,0,1,1.4-.9l32.1-21.3,5.5-3.6V269.6a27.41,27.41,0,0,1-2.9-4.6,27.83,27.83,0,0,1-2.3-6.5h0a25.73,25.73,0,0,1-.6-6.8h0a25.7,25.7,0,0,1,.8-6.2,28.54,28.54,0,0,1,5-10.5V219.1l-5.5-3.6-36.6-24.3C16,184.4,14.61,177.3,13,168.4m369.5-30.3-.3,2.4h0c-1.1,8.3-2.5,16.5-4,24.4-1.4,7.3-2,14.6-8.1,19.4-1.2.9-2.9,1.9-4.1,2.8l-33.6,22.3-10.7,7.1v51l6.9.9a16.29,16.29,0,0,1,10.4,5.4c5.3,6,4.2,11.4,4.2,18.7v3.6l3.3,2.2,36.7,24.3a16.57,16.57,0,0,1,4.7,22.9,16.32,16.32,0,0,1-7.4,6.1,15.51,15.51,0,0,1-9.5,1l-43.2-8.5h0c-10.6-1.9-20.3-3.7-29.3-5.2q-37,38.7-89.5,62.6l-7.4,3.3-7.4-3.3q-50.55-23-86.7-59.6c-6.1,1.2-12.4,2.4-19.2,3.7l-43.2,8.5a16.56,16.56,0,0,1-19.4-13,15.65,15.65,0,0,1,1.2-10c2.3-5.2,6.2-7.1,10.5-10l32.1-21.3,10.8-7.2V264.9a16.53,16.53,0,0,1-5.8-13,15.82,15.82,0,0,1,1.8-7,14.54,14.54,0,0,1,4-5.2V212.6l-10.9-7.2-36.6-24.3c-5.6-3.7-6.7-8.2-7.8-13.7-.1-.4-.2-.8-.3-1.3a7,7,0,0,0-.3-1.4c-1.6-8.7-3.1-17.6-4.3-26.8l-1.7-13.1,12.1-5.5a533.93,533.93,0,0,1,54.6-21.6c-11.4-.1-22.8-.1-34.4-.1H46c-13.2-18.3-18.1-26.7-25.8-37.1,103.1-74,260.2-74,363.3,0-7.7,10.4-12.6,18.8-25.8,37.1h-5.9c-11.6,0-23,.1-34.3.1a533.93,533.93,0,0,1,54.6,21.6l12,5.5Zm-369.9,29c-.8-4.3-1.6-8.8-2.4-13.6-.7-4.5-1.4-9.2-2-13.9l-1.7-13.1-1.1-8.8,8-3.7,12-5.5c8.7-4,17.1-7.6,25.3-10.9m301,.1c8.4,3.3,16.8,7,25.3,10.9l12.1,5.5,8,3.7-1.1,8.8-1.7,13.1"/><path class="cls-2" d="M394.41,139.7c-.6,4.7-1.3,9.4-2,13.9-.8,4.8-1.6,9.3-2.4,13.6-.2,1-.1.6-.4,2.3-1.5,8.8-3.1,17.3-12.1,24.3a32.82,32.82,0,0,1-3.8,2.7c-.4.3-.8.5-1,.7L339,219.5l-5.4,3.5v34.2a36.09,36.09,0,0,1,6.2,2.4,27.65,27.65,0,0,1,8.1,6.3c7.6,8.5,7.5,15.4,7.3,23.7v.1l34.5,22.9a28.52,28.52,0,0,1,12.2,29.2,29.1,29.1,0,0,1-4.2,10.3,27.47,27.47,0,0,1-12.8,10.5,29.12,29.12,0,0,1-8.2,2.1,28.27,28.27,0,0,1-8.2-.4l-43.2-8.4-2.2-.5-12.8-2.3c-2.9-.5-5.6-1-7.9-1.4a290.11,290.11,0,0,1-38.1,31.9,314.42,314.42,0,0,1-50.5,28.7l-7.4,3.3-4.9,2.2-4.9-2.2-7.4-3.3a324.37,324.37,0,0,1-48.8-27.4,295.61,295.61,0,0,1-36.9-30.1l-3.1.6c-.8.1-2.9.5-9.8,1.9l-43.2,8.5a29,29,0,0,1-21.3-4.3,29.69,29.69,0,0,1-7.9-7.9A27.37,27.37,0,0,1,14,343.3a28.29,28.29,0,0,1-.4-8.7,27.63,27.63,0,0,1,2.3-8.4c3.5-7.8,8.1-10.8,13.4-14.2a15.14,15.14,0,0,1,1.4-.9l32.1-21.3,5.5-3.6V269.6a27.41,27.41,0,0,1-2.9-4.6,27.83,27.83,0,0,1-2.3-6.5h0a25.73,25.73,0,0,1-.6-6.8h0a25.7,25.7,0,0,1,.8-6.2,28.54,28.54,0,0,1,5-10.5V219.1l-5.5-3.6-36.6-24.3C16,184.4,14.61,177.3,13,168.4m369.5-30.3-.3,2.4h0c-1.1,8.3-2.5,16.5-4,24.4-1.4,7.3-2,14.6-8.1,19.4-1.2.9-2.9,1.9-4.1,2.8l-33.6,22.3-10.7,7.1v51l6.9.9a16.29,16.29,0,0,1,10.4,5.4c5.3,6,4.2,11.4,4.2,18.7v3.6l3.3,2.2,36.7,24.3a16.57,16.57,0,0,1,4.7,22.9,16.32,16.32,0,0,1-7.4,6.1,15.51,15.51,0,0,1-9.5,1l-43.2-8.5h0c-10.6-1.9-20.3-3.7-29.3-5.2q-37,38.7-89.5,62.6l-7.4,3.3-7.4-3.3q-50.55-23-86.7-59.6c-6.1,1.2-12.4,2.4-19.2,3.7l-43.2,8.5a16.56,16.56,0,0,1-19.4-13,15.65,15.65,0,0,1,1.2-10c2.3-5.2,6.2-7.1,10.5-10l32.1-21.3,10.8-7.2V264.9a16.53,16.53,0,0,1-5.8-13,15.82,15.82,0,0,1,1.8-7,14.54,14.54,0,0,1,4-5.2V212.6l-10.9-7.2-36.6-24.3c-5.6-3.7-6.7-8.2-7.8-13.7-.1-.4-.2-.8-.3-1.3a7,7,0,0,0-.3-1.4c-1.6-8.7-3.1-17.6-4.3-26.8l-1.7-13.1,12.1-5.5a533.93,533.93,0,0,1,54.6-21.6c-11.4-.1-22.8-.1-34.4-.1H46c-13.2-18.3-18.1-26.7-25.8-37.1,103.1-74,260.2-74,363.3,0-7.7,10.4-12.6,18.8-25.8,37.1h-5.9c-11.6,0-23,.1-34.3.1a533.93,533.93,0,0,1,54.6,21.6l12,5.5Zm-369.9,29c-.8-4.3-1.6-8.8-2.4-13.6-.7-4.5-1.4-9.2-2-13.9l-1.7-13.1-1.1-8.8,8-3.7,12-5.5c8.7-4,17.1-7.6,25.3-10.9m301,.1c8.4,3.3,16.8,7,25.3,10.9l12.1,5.5,8,3.7-1.1,8.8-1.7,13.1"/><path class="cls-3" d="M382.51,138.1c-1.2,9.2-2.6,18.1-4.3,26.9-1.4,7.3-2,14.6-8.1,19.4-1.2.9-2.9,1.9-4.1,2.8l-33.7,22.3-10.7,7.1v51l6.9.9a16.29,16.29,0,0,1,10.4,5.4c5.3,6,4.2,11.4,4.2,18.7v3.6l3.3,2.2,36.7,24.3a16.57,16.57,0,0,1,4.7,22.9,16.32,16.32,0,0,1-7.4,6.1,15.51,15.51,0,0,1-9.5,1l-43.2-8.5h0c-10.6-1.9-20.3-3.7-29.3-5.2q-37.05,38.7-89.5,62.6l-7.4,3.3-7.4-3.3q-50.55-23-86.7-59.6c-6.1,1.2-12.4,2.4-19.2,3.7L45,354.2a16.56,16.56,0,0,1-19.4-13,15.65,15.65,0,0,1,1.2-10c2.3-5.2,6.2-7.1,10.5-10l32.1-21.3,10.8-7.2V265a16.53,16.53,0,0,1-5.8-13,15.82,15.82,0,0,1,1.8-7,14.54,14.54,0,0,1,4-5.2V212.7l-10.9-7.2-36.6-24.3c-6.4-4.3-7-9.6-8.3-16.3-1.6-8.7-3.1-17.6-4.3-26.8L18.41,125l12.1-5.5a502.19,502.19,0,0,1,75.7-28c1.4-6.7,1.5-10.1,4.4-15,6.6-11.1,29.2-11.1,41-14.5,12.9-3.9,12.8,4.3,20.6,2.4,6.5-1.5,16.6,3.5,22,13.8,2.4-.1,4.7-.1,7-.1,2.5,0,5.1,0,7.6.1,5.4-10.4,15.6-15.3,22-13.8,7.9,1.9,7.7-6.4,20.7-2.4,11.8,3.4,34.4,3.4,40.9,14.5,3,4.9,3,8.3,4.5,15.2a502.79,502.79,0,0,1,75.2,27.9l12,5.5Z"/><path class="cls-3" d="M394.41,139.7c-.6,4.7-1.3,9.4-2,13.9-.8,4.8-1.6,9.3-2.4,13.6-.2,1-.1.6-.4,2.3-1.5,8.8-3.1,17.3-12.1,24.3a32.82,32.82,0,0,1-3.8,2.7c-.4.3-.8.5-1,.7L339,219.5l-5.4,3.5v34.2a36.09,36.09,0,0,1,6.2,2.4,27.65,27.65,0,0,1,8.1,6.3c7.6,8.5,7.5,15.4,7.3,23.7v.1l34.5,22.9a28.52,28.52,0,0,1,12.2,29.2,29.1,29.1,0,0,1-4.2,10.3,27.47,27.47,0,0,1-12.8,10.5,29.12,29.12,0,0,1-8.2,2.1,28.27,28.27,0,0,1-8.2-.4l-43.2-8.4-2.2-.5-12.8-2.3c-2.9-.5-5.6-1-7.9-1.4a290.11,290.11,0,0,1-38.1,31.9,314.42,314.42,0,0,1-50.5,28.7l-7.4,3.3-4.9,2.2-4.9-2.2-7.4-3.3a324.37,324.37,0,0,1-48.8-27.4,295.61,295.61,0,0,1-36.9-30.1l-3.1.6c-.7.1-2.9.5-9.8,1.9l-43.2,8.5a29,29,0,0,1-21.3-4.3,29.69,29.69,0,0,1-7.9-7.9A27.37,27.37,0,0,1,14,343.3a28.29,28.29,0,0,1-.4-8.7,27.63,27.63,0,0,1,2.3-8.4c3.5-7.8,8.1-10.8,13.4-14.2a15.14,15.14,0,0,1,1.4-.9l32.1-21.3,5.5-3.6V269.6a27.41,27.41,0,0,1-2.9-4.6,27.83,27.83,0,0,1-2.3-6.5h0a25.73,25.73,0,0,1-.6-6.8h0a25.7,25.7,0,0,1,.8-6.2,28.54,28.54,0,0,1,5-10.5V219.1l-5.5-3.6-36.6-24.3C16,184.4,14.61,177.3,13,168.4m355.7-18.5c.7-4.4,1.3-8.8,1.9-13.3l.6-4.4-4-1.8c-12.7-5.8-25.1-11-37.3-15.5s-24.1-8.4-36-11.7l-7-2-1.5-7.1c-.3-1.6-.6-3-.8-4.3-.6-3.2-1-5.3-2.2-7.3-1.9-3.2-12.2-4.9-21-6.4a96.8,96.8,0,0,1-13-2.7l-.1-.1c-2.5-.8-3.3-.3-4,0-4.2,2.4-8,4.5-15.9,2.6h0c-.4-.1-1.5.4-3,1.3a17.87,17.87,0,0,0-5.8,6.4l-3.5,6.6-7.4-.2c-1.4,0-2.6-.1-3.7-.1h-7.1c-1,0-2.1.1-3.4.1l-7.4.2-3.5-6.6a16.75,16.75,0,0,0-5.7-6.4c-1.5-.9-2.6-1.4-3-1.3h0c-7.8,1.9-11.7-.3-15.9-2.6-.7-.4-1.5-.8-4,0l-.1.1c-4.3,1.1-8.6,2-13,2.7-8.8,1.5-19.1,3.2-21,6.4-1.2,2-1.6,4.1-2.2,7.3-.3,1.2-.5,2.5-.8,4.1l-1.5,7.1-7,2c-11.7,3.2-23.8,7.2-36.4,11.8s-25.2,9.9-37.6,15.6l-4,1.8.6,4.4c.6,4.5,1.2,8.8,1.9,13.2.6,4.1,1.4,8.4,2.3,12.9.4,1.9,0-.1.2,1.4.6,3.3,1.1,5.9,2.9,7.1L76,195.5l10.9,7.2,5.4,3.6v39.3l-4.7,3.6-.1.2-.6.9-.3.9a2.92,2.92,0,0,0-.2.9h0a4.1,4.1,0,0,0,.1,1.1h0c.1.3.2.7.3,1a3.51,3.51,0,0,0,.5.8c.2.2.4.5.6.7l4.3,3.6v39.6l-5.6,3.6-10.9,7.2L43.61,331c-.7.5-1.2.8-1.7,1.1-2.1,1.4-3.9,2.5-4.5,3.8a3.19,3.19,0,0,0-.3,1.4,3.33,3.33,0,0,0,.1,1.4,4.42,4.42,0,0,0,.6,1.6,4.89,4.89,0,0,0,1.2,1.3,5.58,5.58,0,0,0,1.6.7,5.44,5.44,0,0,0,1.8,0l43.2-8.4,9.9-1.9c3.2-.6,6.3-1.2,9.4-1.8l6.3-1.2,4.5,4.6a262.55,262.55,0,0,0,38,31.8,296.54,296.54,0,0,0,45,25.3l2.5,1.1,2.5-1.1a286,286,0,0,0,46.7-26.4,260.1,260.1,0,0,0,39.1-33.5l4.5-4.6,6.2,1.1,14.1,2.5c3.9.7,2.5.5,15.3,2.8h.2l1.9.4,10.3,1.8v.1l31,6.1c.4.1.9.1,1.3.2a7.84,7.84,0,0,0,1.4-.5,4.13,4.13,0,0,0,1.1-.7,9,9,0,0,0,.9-1,4.59,4.59,0,0,0,.7-1.6,5.44,5.44,0,0,0,0-1.8,4.59,4.59,0,0,0-.7-1.6,3.74,3.74,0,0,0-1.3-1.2l-36.7-24.5-3.3-2.2-5.4-3.6v-10c0-.5.1-1.5.1-3.5.1-3.1.1-5.7-1.3-7.3a4.12,4.12,0,0,0-1.3-1,4.19,4.19,0,0,0-1.5-.4l-7-.8-10.6-1.3V210.1l5.4-3.6,10.7-7.1,33.7-22.3c.5-.4.9-.6,1.3-.9l2.1-1.4c1.7-1.4,2.4-5.4,3.2-9.6,0-.1,0,.1.5-2.6C367.31,158.3,368,154,368.71,149.9ZM12.61,167.1c-.8-4.3-1.6-8.8-2.4-13.6-.7-4.5-1.4-9.2-2-13.9l-1.7-13.1-1.1-8.8,8-3.7,12-5.5c13.7-6.3,26.7-11.7,39.2-16.4,10.3-3.8,20.7-7.3,31.1-10.3a34.38,34.38,0,0,1,4.6-11.6c7.6-12.8,23.7-15.5,37.6-17.9,4-.7,7.9-1.3,10.3-2h0c12.1-3.6,17.5-.7,22.4,2,6.2-1.1,13.5.5,20.1,4.6a38.69,38.69,0,0,1,9.9,9h1.8a38.94,38.94,0,0,1,10-9c6.5-4.1,13.9-5.7,20.1-4.6,4.9-2.7,10.3-5.7,22.4-2h0c2.4.7,6.2,1.3,10.3,2,13.9,2.4,30,5.1,37.6,17.9a33.21,33.21,0,0,1,4.5,11.8c10.2,3,20.4,6.5,30.9,10.3,12.8,4.8,25.7,10.2,38.8,16.2l12.1,5.5,8,3.7-1.1,8.8-1.7,13.1"/><path class="cls-4" d="M56.41,54.6l5.1-2.8,10.8,27.4L68,81.6l-8.2-8.8-.4.2,2.9,11.7L58,87.1,40.61,63.4l5.1-2.8,7.6,10.5-1.5,2.7,2.7-1.5-2.1-9.2,2.7-1.5,5.3,5.6-1.3,2.6,2.7-1.5Zm17.4-8.5a8.45,8.45,0,0,1,1.7-.5,4.42,4.42,0,0,1,3.8,1.2,6.34,6.34,0,0,1,1.6,2.3l7.4,16.3a6,6,0,0,1,.6,1.9,6.7,6.7,0,0,1,0,2,6.63,6.63,0,0,1-.9,1.9,5.11,5.11,0,0,1-2.1,1.5l-3.8,1.6a5.42,5.42,0,0,1-2.5.6,4.55,4.55,0,0,1-2-.5,4.71,4.71,0,0,1-1.5-1.3,5.85,5.85,0,0,1-1-1.7l-7.4-16.3a6.37,6.37,0,0,1-.7-2.7,4.84,4.84,0,0,1,1.6-3.6,13,13,0,0,1,1.5-1Zm2.5,5.6a1.21,1.21,0,0,0-.7-.7,1.5,1.5,0,0,0-1.3.1l-.9.4c-.5.3-.9.5-.9.9a1.18,1.18,0,0,0,.1,1l6.9,15.2-1.4,2,4.2-1.9a1.79,1.79,0,0,0,1-.9,1.73,1.73,0,0,0-.1-1Zm26.1,5.7a6.77,6.77,0,0,1,2.6,1.8,12.39,12.39,0,0,1,1.8,2.2,14.25,14.25,0,0,1,1.3,2.8l-5.5,2a12.75,12.75,0,0,0-1.1-2.7,8.34,8.34,0,0,0-1.6-2.1,4.8,4.8,0,0,0-2.5-1.4,2.77,2.77,0,0,0-.9-.1c-.3,0-.5.1-.7.1l2.9,7.8-5.3,2L83.31,42.4l9.1-3.4a11.63,11.63,0,0,1,1.8-.4,3.08,3.08,0,0,1,1.9.3,5.67,5.67,0,0,1,1.8,1.2,7.22,7.22,0,0,1,1.4,2.4l3.3,8.9a8.33,8.33,0,0,1,.4,1.5,4.29,4.29,0,0,1,0,1.6,8.33,8.33,0,0,1-.4,1.5,3.25,3.25,0,0,1-1,1.3c.2.1.3.1.5.2a.22.22,0,0,1,.3-.1ZM92,55.7l4.3-1.6c.6-.2,1-.5,1-.9a1.7,1.7,0,0,0,0-1l-2.8-7.6a1.78,1.78,0,0,0-.7-.8,1.48,1.48,0,0,0-1.3,0l-2.3.9,3.4,9.1Zm10.4-20.4,5.6-1.6,6.1,21.4-1.9,2.1,9.1-2.6,1.5,5.2-12.4,3.6ZM129,28.5a5.46,5.46,0,0,1,1.8-.1,4.76,4.76,0,0,1,3.5,1.9,8.49,8.49,0,0,1,1.1,2.6l3.8,17.5a6.73,6.73,0,0,1,.1,2,4.14,4.14,0,0,1-.5,1.9,4,4,0,0,1-1.3,1.6,5.13,5.13,0,0,1-2.4,1l-9.4,2-6.2-28.4Zm1.2,6a1.62,1.62,0,0,0-.5-.9,1.69,1.69,0,0,0-1.4-.1L126,34l3.8,17.7-1.9,1.7,4.5-1a1.76,1.76,0,0,0,1.2-.7,1.18,1.18,0,0,0,.1-1Zm26-10.8a5.44,5.44,0,0,1,1.8,0,4,4,0,0,1,1.8.7,5.36,5.36,0,0,1,1.5,1.5,6.18,6.18,0,0,1,.9,2.7l2.6,17.7a6.7,6.7,0,0,1,0,2,6,6,0,0,1-.6,1.9,4.28,4.28,0,0,1-1.4,1.6,5,5,0,0,1-2.4.9l-4.2.6a7.58,7.58,0,0,1-2.6-.1,4.18,4.18,0,0,1-1.8-1.1,3.86,3.86,0,0,1-1.1-1.7,5.92,5.92,0,0,1-.5-1.9l-2.6-17.7a6.62,6.62,0,0,1,.1-2.8,5,5,0,0,1,1-1.9,3.55,3.55,0,0,1,1.6-1.1,4.8,4.8,0,0,1,1.7-.5Zm.9,6.1a1.05,1.05,0,0,0-.5-.9,1.48,1.48,0,0,0-1.3-.2l-.9.1a1.43,1.43,0,0,0-1.2.6,1.23,1.23,0,0,0-.2,1l2.4,16.5-1.9,1.6,4.6-.7c.7-.1,1-.3,1.2-.7a1.8,1.8,0,0,0,.2-1Zm9.1-7.3,3.5-.3,6,11.1-2.3,1.5,3.8-.3-1-12.8,6.1-.5,2.4,29.1-3.8.3-6.4-11.7-.9.1,1,12.1-6,.5Zm21-1.2,5.9-.1.3,22.4L191,45.1l9.5-.2.1,5.4-12.9.2Zm17.3-.3,5.8.1-.5,29.2-5.8-.1Zm9.7,0,3.5.2,4.5,11.8-2.4,1.1,3.8.2.6-12.8,6.1.3L228.91,51l-3.8-.2-4.9-12.4h-.9l-.6,12.2-6-.3Zm21.5,1.5,11.9,1.4-.6,5.4-6.2-.7-.8,6.9,3.5.4-.6,4.9-3.5-.4-.6,5-2.5,1.1,8.4,1-.6,5.4-11.9-1.4Zm25.5,3.6,5.8,1L263,49l-2.7,1,9.4,1.7-1,5.4L256,54.8Zm17.9,3.8,11.7,2.9-1.4,5.3-6-1.5-1.7,6.7,3.5.9L284,49l-3.5-.9-1.2,4.9-2.5.7,8.3,2.1-1.3,5.3-11.7-2.9Zm18,28.1-3-1-3,6.2-5.5-1.6L299,35.3l2.1.7a9.06,9.06,0,0,1,2.6,1.3,3.9,3.9,0,0,1,1.7,3.2,10.87,10.87,0,0,1-.1,1.8l-4.1,24.4-5.5-1.8Zm.7-4.1,1.4-7.6-2.7,5.6-2.3.8ZM320,50.8l1.1-2.7-2.2-.9a1.5,1.5,0,0,0-1.3-.1,1.78,1.78,0,0,0-.7.8l-6.3,15.4-2.4.5,5.5,2.3,4-9.9,5.2,2.1-6,14.6L308,69.3a7.44,7.44,0,0,1-2.2-1.4,4.35,4.35,0,0,1-1-1.9,4.52,4.52,0,0,1-.1-2,10.55,10.55,0,0,1,.5-1.9L312,45.5a6.08,6.08,0,0,1,1.5-2.4,4.53,4.53,0,0,1,1.9-1.1,4.13,4.13,0,0,1,1.9-.2,11.63,11.63,0,0,1,1.8.4l8.9,3.6-1.6,4.1Zm26.7,3.9-10.5,21a9.06,9.06,0,0,1-1.1,1.6,6.1,6.1,0,0,1-1.6,1.2,4.55,4.55,0,0,1-4.5-.2l-3.9-1.8a5.26,5.26,0,0,1-2-1.6,4.57,4.57,0,0,1-.7-3.9,7.31,7.31,0,0,1,.7-1.9l10.5-21,4.7,2.4-10.2,20.3-2.4.4,4,2a1.39,1.39,0,0,0,1.4.1,2.34,2.34,0,0,0,.7-.7L342,52.3Zm5,2.7L362,63.6l-2.8,4.6-5.3-3.2-3.6,5.9,3,1.8-2.6,4.3-3-1.8L345,79.5h-2.7l7.3,4.4-2.8,4.6-10.3-6.2Z"/><polygon class="cls-5" points="33.31 125.2 204.71 88.7 363.61 125.2 363.11 179.1 213.81 192 34.71 170.4 33.31 125.2"/><path class="cls-4" d="M382.51,138.1c-1.7,12.9-3.8,25.3-6.4,37.4L354.21,190a432.19,432.19,0,0,0,10.5-54.2c-115.6-53-211.2-53-326.8,0a454.65,454.65,0,0,0,9.5,50.3l-21.7-14.4c-2.2-10.9-4.1-22-5.6-33.6L18.41,125l12.1-5.5C90.71,91.9,146,78.1,201.31,78.1s110.6,13.8,170.9,41.4l12,5.5Z"/><path class="cls-4" d="M333,293.9c-1.8,3-3.7,5.9-5.7,8.8q-43.65,64.65-118.6,98.8l-7.4,3.3-7.4-3.3q-75.15-34-118.7-98.8c-2.8-4.1,1,1.9-1.6-2.4l23.3-10.1V269.7c2.6,4.4,5.3,8.7,8.2,13q35.7,52.95,96.2,82.6,60.6-29.55,96.2-82.6c10.2-15,12.9,1.5,20.1-16.4l6.2,27.7Z"/><path class="cls-6" d="M133.11,313.2c-1.4.2-2.8.5-4.1.7-6.8,1.2-13.9,2.5-21.5,3.9q37.8,42.9,93.8,68.4,58.05-26.25,96.4-71.4c-7.7-1.3-14.9-2.5-21.7-3.5l-3.8-.6C218.21,302.7,189.41,303.5,133.11,313.2Z"/><path class="cls-7" d="M201.21,386.3q58-26.25,96.4-71.4c-7.7-1.3-14.9-2.5-21.7-3.5l-3.8-.6C171.91,295.8,172.61,349.7,201.21,386.3Z"/><path class="cls-8" d="M299.71,137.4c3.1-6.2,2.6-7.8.8-13-1.4-3.9-1.4-9.9-2.7-13.9-1.3-3.8-2.4-7.7-3.5-11.8-1.3-5.2-3.3-12.1-5-17-3.8-10.8-24-11-33.5-12.9-14.5-2.9-14.6-4.8-23.1,8.5a80,80,0,0,1-7.5,10.1c-1.7,2-7.8,7.9-5.2,11a8.7,8.7,0,0,0,6,2.8c2.6.1,6.1-2.1,8.7-2.9,2-.6,4.2-.7,6.2-1.4,1.1-.3-.4-.8.6-1.5l3.1-1.2c2.7-2.4,4.8-4,5.7-9.1l.3.7c3.3,8.4,10.8,7.2,17.6,2.1l-2.9,3.8a13.2,13.2,0,0,0-2.2,5c2.1,1.4,3.5,1.6,6,2-1.5,2.1-3.1,2-5.2,3.3l-3.6,4.9-15.8,30.9c-1.9,1.9-4.7,10.3-5.4,13.7-1.3,6.6,4.8,11.2,9.7,14.1,5.9,3.6,16.4,5.7,22.5,5.1,12.7-1.6,11.3-11.8,11.8-11.5.1.1,2.3,15,5.3,19.8,6.9,10.9,21.8,19.5,31.9,28l1,.8,26.8-17.8-52-39.2c-4.5,3.6-9.5,2.6-14.9,1.2,5.3-.1,8.1.1,11.6-3.4C295.61,145.8,297.51,141.6,299.71,137.4Zm73.4,36-4.8-3c-7.9-5-15.7-9.9-23.7-15s-16-10-23.8-14.9l-6.1-3.8c-6.3-4.2-7.5-5.4-11.7.9-.8,1.2-2.3,6-2.8,7,1.7,4.3,7.9,12.8,13.2,18,1.8,1.8,32.8,23.7,35.8,26.6Z"/><path class="cls-9" d="M237.81,143.8c3.2-8.1-4.5-7.8-15.8-11.5-3.1-1-7-3.1-10.2-3.2-5-.2-9.4,7.7-3.1,13.8,4.6,4.5,15.5,6.4,21,5.1C232.61,147.2,236.61,146.9,237.81,143.8Z"/><path class="cls-10" d="M211.71,125.9c5.8,3.4,18.8,7.4,25.5,7.2,4.9-.1,6.5-4.6,6.1-9.2-.5-4.2-4.3-5.2-9.1-6.5-6-1.7-18.3-8-22.9-8.2-4.4-.1-6,4.9-6.1,8.9S208.41,124,211.71,125.9Z"/><path class="cls-11" d="M224.81,112.7c9.8,2.5,17.7,8.9,22,2.3,6-9.1.5-17.5-10.5-14.6-1.3.3-5.6.6-6.9.9-5.3,1.5-11.7.3-11.9-4.3-.1-3.9,3.2-4.3,4-6.7-1.6-1.5-7.3-4.2-9.5-3.6-5.5,1.5-10,12.1-2,18.3A40.35,40.35,0,0,0,224.81,112.7Z"/><path class="cls-12" d="M224,85.6c1.8-2.2,6.5-8.7,6.8-11-1.9-1.4-3.2-3.8-7.1-3.3-8,1.1-12.6,14.7-2.1,17.3A31.51,31.51,0,0,1,224,85.6Z"/><path class="cls-13" d="M321.31,207.7l-1-.8c-10-8.5-21.6-17.6-28.5-28.5-4.9-7.6-8.5-15.5,1.3-20.8,12.9-6.9,41.4,25.6,52.5,34l1.1-.7c-2.9-2.9-6.3-6-8.1-7.8-9.3-9.2-42.4-32.5-34.5-44.3,5.2-7.8,13.7-.3,22,5,7.8,5,10.7,6.6,18.6,11.6l23.7,15,4.8,3,3-2c-17.4-14.5-37.5-26.8-56.4-38.8-3.3-2.1-5.4-3.1-7.7-5.7-7-8.4-11.2-21.1-14.3-31.6-2.3-9.5-1.9-13.1-5.3-18.9-6.6-11.1-29.1-11.1-40.9-14.5-13-3.9-12.8,4.3-20.7,2.4-7.3-1.7-19.4,4.9-23.9,18.2s-4.2,8.8-5.3,11.9c-4.9,13.6-1.2,24.8-1.5,38-.5,26.1,17.9,12.9,33.5,28.9,25.7,26.4,38.5,7.3,44.6,14.5,5.8,12.1,22.4,24.6,39,35.4l-.5-.5Zm-50-68.6c8,9.8,17.4,8.5,23.3,2.4,9-9.3,5.2-18.3,1.8-28.4-1.3-3.9-2.4-7.7-3.5-11.8-1.3-5.2-2.9-13-4.7-17.9-3.8-10.7-23-11-32.4-12.9-14.5-2.9-13.7-5.7-22.1,7.7a80.43,80.43,0,0,1-7.2,10.4c-1.6,2-7.1,6.5-4.5,9.6,6.7,5.7,26.8-4.7,28.2-13l.3.7c2.4,6.2,11.6,6.1,17.6,2.1-4.3,5-7.5,9.7.8,10.8-12.7,13.6-7,28.7,2.4,40.3Zm2.5,9.7c-7.8-6.1-18.6-16.5-27.2-7.7a17.13,17.13,0,0,0-4.3,8.2c-1.3,6.6,2.5,11.2,7.4,14.1,5.9,3.6,13.2,4.5,19.2,3.9,19.3-1.8,15.1-10.5,4.9-18.5Zm-51.4-61.7c2.2-3.6,7.5-8.7,8.4-12.5-1.9-1.4-3.2-3.8-7.1-3.3-8,1-11.7,13.2-1.3,15.8Zm-11.3,43.4c-5-.2-6.9,6-.6,12.1,5.1,4.9,22.9,7.7,25.9.3,1.5-3.9.6-4.5-3.5-6-2.7-.9-6.6-1.6-11.6-3.3-2.9-.9-6.9-3-10.2-3.1Zm-.2-18.8c-4.4-.1-5.1,2.4-5.2,6.4s2.9,5.1,6.3,7c5.8,3.4,17.3,6.9,24,6.8,4.9-.1,6.1-2.6,5.7-7.3-.4-4.2-2.5-4.4-7.3-5.8-6-1.6-18.8-6.9-23.5-7.1Zm9.3-21.5c-1.6-1.5-5-2.8-7.2-2.1-5.5,1.5-10.6,10.4-2.7,16.5,5.4,4.2,33.3,15.4,36.8,10,6-9.1-3.5-15.3-14.4-12.4-4.6,1.2-14.8,2.6-15.1-5.1-.2-4,1.8-4.5,2.6-6.9Z"/><path class="cls-4" d="M338.51,163c-3,2.6-6.8,5.1-9.8,7.8-9.2-6.8-19.1-16.9-22.9-26C313.81,152.4,324.71,160.9,338.51,163Z"/><path class="cls-14" d="M103.51,137.4c-3.1-6.2-2.6-7.8-.8-13,1.4-3.9,1.4-9.9,2.7-13.9,1.3-3.8,2.4-7.7,3.4-11.8,1.3-5.2,3.3-12.1,5-17,3.9-10.8,24-11,33.5-12.9,14.5-2.9,14.7-4.8,23.1,8.5a73.38,73.38,0,0,0,7.5,10.1c1.6,2,7.8,7.9,5.2,11a8.7,8.7,0,0,1-6,2.8c-2.6.1-6.1-2.1-8.6-2.9-2-.6-4.2-.7-6.2-1.4-1-.3.4-.8-.6-1.5l-3.1-1.2c-2.7-2.4-4.8-4-5.7-9.1l-.3.7c-3.3,8.4-10.8,7.2-17.6,2.1l2.9,3.8a13.2,13.2,0,0,1,2.2,5c-2.1,1.4-3.5,1.6-5.9,2,1.5,2.1,3.1,2,5.2,3.3l3.6,4.9,15.8,30.9c1.9,1.9,4.7,10.3,5.4,13.7,1.3,6.6-4.8,11.2-9.7,14.1-5.9,3.6-16.4,5.7-22.5,5.1-12.7-1.6-11.3-11.8-11.8-11.5-.1.1-2.2,15-5.2,19.8-6.9,10.9-21.9,19.5-31.9,28l-1,.8L55.31,190l52-39.2c4.5,3.6,9.5,2.6,14.9,1.2-5.4-.1-8.1.1-11.6-3.4C107.51,145.8,105.61,141.6,103.51,137.4ZM30,173.4l4.8-3c7.9-5,15.7-9.9,23.6-15s16-10,23.8-14.9c2-1.3,4-2.5,6.1-3.8,6.4-4.2,7.5-5.4,11.7.9.8,1.2,2.4,6,2.8,7-1.7,4.3-7.9,12.8-13.1,18-1.8,1.8-32.8,23.7-35.7,26.6Z"/><path class="cls-15" d="M164.81,141.9c-2.2-8.4,5.3-7.2,17-9.6,3.2-.6,7.4-2.2,10.6-2,5,.4,8.4,8.8,1.4,14.1-5.1,3.9-16.2,4.5-21.5,2.6C169.51,145.9,165.61,145.1,164.81,141.9Z"/><path class="cls-16" d="M191.41,125.9c-5.8,3.4-18.8,7.4-25.5,7.2-4.9-.1-6.5-4.6-6-9.2.4-4.2,4.3-5.2,9.1-6.5,6-1.7,18.3-8,22.9-8.2,4.4-.1,6,4.9,6.1,8.9S194.71,124,191.41,125.9Z"/><path class="cls-17" d="M178.41,112.7c-9.8,2.5-17.7,8.9-22,2.3-6-9.1-.5-17.5,10.4-14.6,1.3.3,5.7.6,7,.9,5.3,1.5,11.7.3,11.8-4.3.2-3.9-3.8-4.7-4.6-7.1,1.6-1.5,7.9-3.4,10.2-2.8,5.5,1.5,9.9,11.8,1.9,18A42.09,42.09,0,0,1,178.41,112.7Z"/><path class="cls-18" d="M179.11,85.6c-1.8-2.2-6.5-8.7-6.9-11,1.9-1.4,3.2-3.8,7.1-3.3,8.1,1.1,12.6,14.7,2.1,17.3A20,20,0,0,0,179.11,85.6Z"/><path class="cls-13" d="M81.81,207.7l1-.8c10.1-8.5,21.6-17.6,28.6-28.5,4.8-7.6,8.5-15.5-1.3-20.8-12.9-6.9-41.5,25.6-52.5,34l-1.1-.7c2.9-2.9,6.3-6,8.1-7.8,9.3-9.2,42.5-32.5,34.5-44.3-5.1-7.8-13.8-.3-22,5-7.8,5-10.7,6.6-18.6,11.6s-15.8,10-23.6,15l-4.8,3-3-2c17.4-14.5,37.5-26.8,56.3-38.8,3.3-2.1,5.5-3.1,7.7-5.7,7-8.4,11.2-21.1,14.2-31.6,2.4-9.5,1.9-13.1,5.3-18.9,6.6-11.1,29.2-11.1,41-14.5,12.9-3.9,12.8,4.3,20.6,2.4,7.3-1.7,19.4,4.9,23.9,18.2s4.2,8.8,5.3,11.9c4.9,13.6,1.2,24.8,1.5,38,.5,26.1-17.9,12.9-33.5,28.9-25.7,26.4-38.5,7.3-44.6,14.5-5.8,12.1-22.4,24.6-39,35.4l.5-.5Zm50-68.6c-8,9.8-17.4,8.5-23.2,2.4-9-9.3-5.2-18.3-1.8-28.4,1.3-3.9,2.4-7.7,3.4-11.8,1.3-5.2,2.9-13,4.7-17.9,3.9-10.7,22.9-11,32.4-12.9,14.4-2.9,13.6-5.7,22,7.6a90.91,90.91,0,0,0,7.1,10.4c1.7,2,7.2,6.5,4.5,9.6-6.7,5.7-26.8-4.7-28.2-13l-.3.7c-2.4,6.2-11.6,6.1-17.6,2.1,4.3,5,7.5,9.7-.9,10.8,13,13.7,7.3,28.8-2.1,40.4Zm-2.5,9.7c7.8-6.1,18.6-16.5,27.1-7.7a16.31,16.31,0,0,1,4.3,8.2c1.3,6.6-2.5,11.2-7.4,14.1-6,3.6-13.2,4.5-19.2,3.9-19.2-1.8-15-10.5-4.8-18.5Zm51.4-61.7c-2.2-3.6-7.5-8.7-8.4-12.5,1.9-1.4,3.2-3.8,7.1-3.3,8,1,11.7,13.2,1.3,15.8ZM192,130.5c5-.2,6.9,6,.6,12.1-5.1,4.9-22.9,7.7-25.9.3-1.5-3.9-.6-4.5,3.5-6,2.6-.9,6.6-1.6,11.6-3.3,3-.9,6.9-3,10.2-3.1Zm.2-18.8c4.4-.1,5.1,2.4,5.2,6.4s-2.9,5.1-6.3,7c-5.8,3.4-17.3,6.9-24,6.8-4.9-.1-6.1-2.6-5.6-7.3.4-4.2,2.5-4.4,7.3-5.8,5.9-1.6,18.7-6.9,23.4-7.1Zm-9.3-21.5c1.6-1.5,5-2.8,7.2-2.1,5.5,1.5,10.7,10.4,2.8,16.5-5.4,4.2-33.3,15.4-36.8,10-6-9.1,3.5-15.3,14.4-12.4,4.6,1.2,14.8,2.6,15.1-5.1.1-4-1.9-4.5-2.7-6.9Z"/><path class="cls-4" d="M64.61,163c3,2.6,6.8,5.1,9.8,7.8,9.2-6.8,19.1-16.9,22.9-26C89.41,152.4,78.41,160.9,64.61,163Z"/><path class="cls-13" d="M235.11,246.3c3.7,0,7.3-.1,11-.1a3.7,3.7,0,0,0,2.9-1.4,6.56,6.56,0,0,0,1.2-4.3V223.7c0-2-.4-3.3-1.3-3.9a4.07,4.07,0,0,0-2.4-.8c-1.7.2-3.3.3-5,.4v20.9C239.41,242.3,237.21,244.3,235.11,246.3Z"/><path class="cls-4" d="M313.51,163.7l43.2-8.5a16.56,16.56,0,0,1,19.4,13,15.65,15.65,0,0,1-1.2,10h0a17,17,0,0,1-6.5,7.3h0l-36.1,23.9-10.7,7.1v51l6.9.9a16.29,16.29,0,0,1,10.4,5.4,17.1,17.1,0,0,1,4,8.6h.2v13.7l3.3,2.2,36.7,24.3a16.57,16.57,0,0,1,4.7,22.9,16.74,16.74,0,0,1-14.6,7.4l-.1.2-2.3-.5-43.2-8.5h0c-57-10.3-88.9-15.5-120.5-15.3s-62.9,5.7-119,16.7L44.91,354a16.54,16.54,0,0,1-11.7-30.4h0l36.1-23.9,10.9-7.2V264.8a16.53,16.53,0,0,1-5.8-13,15.82,15.82,0,0,1,1.8-7,16.37,16.37,0,0,1,2.9-4l-.1-.1,1.3-1V212.6l-10.9-7.2-36.7-24.3a16.56,16.56,0,0,1,10-30.3v-.2l2.3.4,43.2,8.5,3.8.8c53.8,10.5,85.2,16.7,117,17.1a315.19,315.19,0,0,0,45.5-3c16.6-2.1,35.6-5.7,59-10.7Zm-201.2,34.6a14.87,14.87,0,0,1,1,5.5v46.3h-.2c0,.3.1.6.1.9a7.57,7.57,0,0,1,.1,1.5v51.3h-.2a13.23,13.23,0,0,1-.8,3.3v.1l9.5-1.9,5.8-1.1,2.3-.5h0l5.5-1,2.8-.5,5.3-1,3.4-.6,3.3-.6,3.4-.6,3.2-.6h.3l2.5-.5v.1l3.6-.6c1.8-.3,2.7-.5,3.2-.5a2.49,2.49,0,0,0,.8-.1h0l1.6-.3,3.5-.5h0l.9-.1,1.8-.2a16.52,16.52,0,0,1,2.8-6.7,16.29,16.29,0,0,1,19.7-5.7,17,17,0,0,1,9,8.9l.3.7h12.3l5.4.4c.5,0,1.4.1,2.5.2l5,.5c1.8.2,3.2.3,4.3.4,1.3.1,2.3.3,2.9.3l3,.3,4.3.5,4.5.6c1.4.2,2.4.3,2.9.4a6.15,6.15,0,0,0,1.3.1h1.6a1.49,1.49,0,0,1,.6-.1c.1,0,.2-.1.4-.1s.3-.1.4-.2.1-.1.2-.1h0a16.57,16.57,0,0,1,23.4.5,16,16,0,0,1,3.4,5.4l1.8.3,3.5.6,3.1.6h.2a.37.37,0,0,1,.3.1h0l16.1,3.2a13.4,13.4,0,0,1-.1-2v-5.5l-6.3-.8a16.56,16.56,0,0,1-15.2-16.5v-77h.2a16.65,16.65,0,0,1,.8-3.2V202c-6.9,1.2-14.9,2.4-23.4,3.7-24.7,3.8-54.2,8.3-74.6,15.7-.8.3-5.6-1.2-12.9-3.5C160.61,212.6,126.81,202.1,112.31,198.3Z"/><path class="cls-4" d="M359.81,171.4l-36.7,24.3-18.2,12v74.5l13.8,1.6,7.7.9v20.2l10.7,7.1,36.7,24.3c-164.1-32.2-166-31.7-332.1,1.4l36.6-24.2,18.3-12.1v-49l-5.9-.1,5.9-4.6v-44l-18.3-12.1-36.7-24.3,43.1,8.5C203.91,199.7,227.61,198.9,359.81,171.4Z"/><path class="cls-3" d="M316.81,180.3l40.9-8-34.7,23-18.4,12.2v75.2l14.1,1.7h.1l7.3.9v20l10.9,7.2,34.7,23-40.9-8c-95.9-18.8-132.6-20.8-246,1.5l-40.9,8,34.7-23,18.5-12.3V252l-5-.1,5-3.9V203.6l-18.5-12.3-34.7-23,40.9,8C202.71,198.7,216,199.9,316.81,180.3Z"/><path class="cls-4" d="M316.41,178.1l40.9-8a2.4,2.4,0,0,1,1.7,4.4l-34.6,23-17.3,11.4v71.8l10.4,1.3,1.6.2h.1l7.3.9a2.39,2.39,0,0,1,2.1,2.4h0v18.7l9.8,6.5,34.7,23a2.39,2.39,0,0,1-1.8,4.3h0l-40.9-8c-47.8-9.4-80.9-14.6-116-14.6s-72.6,5-129.1,16.1l-40.9,8a2.39,2.39,0,0,1-2.8-1.8,2.44,2.44,0,0,1,1.1-2.5l34.7-22.9,17.5-11.5V254.3l-2.8-.1a2.35,2.35,0,0,1-2.3-2.4,2.43,2.43,0,0,1,.9-1.8h0l4.1-3.2v-42l-17.4-11.5-34.7-23a2.39,2.39,0,0,1,1.8-4.3h0l40.9,8h.1c58.8,11.2,91.5,17,121.9,17.7S266.11,187.8,316.41,178.1Zm30.1-1.2-29.2,5.7h0c-50.5,9.8-79.2,14.4-110.1,13.7s-63.7-6.5-122.7-17.7h-.1l-29.2-5.7L80,189.3l18.4,12.1a2.44,2.44,0,0,1,1.2,2.1v44.4h0a2.46,2.46,0,0,1-.9,1.9l-.2.1a2.31,2.31,0,0,1,1.1,2v49.7h0a2.31,2.31,0,0,1-1.1,2L80,315.8l-24.8,16.5,29.2-5.8c56.9-11.1,94.5-16.2,130-16.1s68.8,5.3,116.9,14.7l29.2,5.7-24.8-16.4-10.8-7.1a2.44,2.44,0,0,1-1.2-2.1V287.3l-5.2-.6h-.1l-1.6-.2-12.4-1.5a2.4,2.4,0,0,1-2.2-2.4V207.4h0a2.46,2.46,0,0,1,1-2l18.4-12.1Z"/><path class="cls-4" d="M136.51,194.8c6.4,1.2,12.7,2.3,19,3.5-2.5,8.7-5.1,17.5-7.6,26.5s-5,18.5-7.6,27.9c.5.4,1,1,1.7,1.7a14.1,14.1,0,0,1,1.8,2.3,23.94,23.94,0,0,1,2.1,3.4,55.15,55.15,0,0,1,5,14.1c1.2,5.4,2.1,10.5,2.7,15.4a169.52,169.52,0,0,1,1.2,17.5l-18.2,3.3a139.44,139.44,0,0,0-.3-17.1,87.15,87.15,0,0,0-2.4-14.3,30.65,30.65,0,0,0-5.7-12.1,16.18,16.18,0,0,0-1.8-1.9,10.1,10.1,0,0,0-1.6-1.3,4.81,4.81,0,0,0-1.6-.8v49.8l-39.9,7.8,22.2-14.7V199.2l-22.2-14.7,39.9,7.8v46.2c-2.5,1.9-5.1,3.8-7.6,5.8,3,.1,6.1.2,9.1.2,2-8.5,3.9-17,5.9-25.3S134.51,202.8,136.51,194.8Zm156,116.8,39.9,7.8-14.6-9.7V292.6l-29-3.5c2.5-1.7,5-3.4,7.5-5.2V203.1l22.1-14.6-39.9,7.8V308.9ZM164.21,199.7c3.5.6,7.1,1.1,10.6,1.6,2.6,7.1,5.1,14.1,7.7,21s5.1,13.5,7.7,20.1c-2.4,1.4-4.8,2.8-7.2,4.1,3.8.1,7.6.1,11.5.1V203.5c6.2.4,12.4.6,18.5.7v96.9c-3.9,0-7.7.1-11.5.2-2.8-6.6-5.5-13.3-8.3-20s-5.5-13.6-8.2-20.5h-2.6v42.1c-6.1.8-12.1,1.6-18.2,2.6V199.7Zm100.9,35.5a19.63,19.63,0,0,1-1.3,7.6,20.58,20.58,0,0,1-3,5.4,12.21,12.21,0,0,1-3.6,3.2,7.48,7.48,0,0,1-3.2,1,7.08,7.08,0,0,1,3.3,1.5,22.34,22.34,0,0,1,5,4.7,32.68,32.68,0,0,1,6.4,20.5v7c0,7.2-1.4,12.3-4.3,15.3s-6.8,3.9-11.7,3.2c-9.6-1.4-19.2-2.4-28.8-3.1V203.9c9-.7,18-1.6,27-2.9a14.22,14.22,0,0,1,6.8.4,8.77,8.77,0,0,1,4.5,3.1,13.61,13.61,0,0,1,2.4,5.5,38.08,38.08,0,0,1,.7,7.5Zm-24-15.3v20.6c-2.1,2-4.3,3.9-6.4,5.9l10.8-.2a3.7,3.7,0,0,0,2.9-1.4,6.29,6.29,0,0,0,1.2-4.2V224q0-3-1.2-3.9a4,4,0,0,0-2.3-.8,30.86,30.86,0,0,1-5,.6Zm0,41.5v24l6.6.6a4.65,4.65,0,0,0,3.4-.9,4.42,4.42,0,0,0,1.5-3.6,40.07,40.07,0,0,0,.1-6,48.52,48.52,0,0,0-.9-5.5,15.42,15.42,0,0,0-2.6-5.3,8.19,8.19,0,0,0-2.7-2.2,9.16,9.16,0,0,0-4.3-1.1Z"/><path class="cls-19" d="M107.81,260.9v46.4l-1.1.7-12.3,8.1,26.3-5.2V260.2l2.8.5a4.42,4.42,0,0,1,1.5.5,7.46,7.46,0,0,1,1.2.7l.1.1h0a18.26,18.26,0,0,1,1.6,1.3l1,1a13.07,13.07,0,0,1,1.1,1.2,27.84,27.84,0,0,1,3.7,5.9,46.08,46.08,0,0,1,2.5,7.1c.6,2.5,1.1,4.9,1.5,7.3s.7,4.9.9,7.3c.2,2.7.4,5.5.5,8.5v5.9c3.8-.7,7.9-1.4,12-2.1l1.4-.3c-.1-2.2-.1-4.5-.3-6.7-.2-2.9-.5-5.8-.8-8.5-.3-2.3-.7-4.8-1.1-7.5s-1-5.1-1.6-7.8a60.54,60.54,0,0,0-2-7.3,48.45,48.45,0,0,0-2.7-6.2c-.3-.6-.6-1.1-.9-1.6a7.1,7.1,0,0,0-1-1.4c-.3-.3-.5-.7-.9-1.1a9,9,0,0,0-.9-1,3.24,3.24,0,0,1-.8-.9,1.33,1.33,0,0,0-.6-.5C128,256.3,117.71,258.4,107.81,260.9Zm100-11.6h2.9v49.4c-1.2,0-2.3,0-3.5.1-1.4,0-2.8.1-4.2.1-1.4-3.3-2.6-6.2-3.5-8.5-1.2-2.9-2.5-6.1-4.1-10-1.7-4.1-3.2-7.8-4.1-10.2-1.5-3.8-2.9-7.3-4.1-10.3l-.6-1.5h-4.2l-2.3.1v42.3l-7,1-6.4,1V251.1c13.2-1.2,27-1.8,41.1-1.8Zm18.4.3c9.5.4,18.9,1,27.9,2v.8h0v2.4c2.2.5,5,3.5,6.3,5.2,5.7,7.5,6.6,17.6,6,26.8-.4,5.6-1.5,10.7-3.7,13a9,9,0,0,1-4,2.3,15.63,15.63,0,0,1-5.7.2c-4.8-.7-9.7-1.3-14.5-1.8l-12.3-1.2V249.6Zm54.6,5.6c4.4.8,8.8,1.6,13.1,2.5v25c-.8.5-1.7,1.2-2.7,1.9-1.4,1-2.6,1.8-3.7,2.5l-5.2,3.5,6.3.7,26.8,3.3v16.3l1.1.7,4.7,3.1L293,309.2h0l-7-1.3-5.1-1Zm-42.1,30.2V258.9a33.46,33.46,0,0,1,6.3.5,10.89,10.89,0,0,1,2.5,1,13.73,13.73,0,0,1,2,1.3,7.52,7.52,0,0,1,1.5,1.6c3.7,5,5.5,15.7,3.4,21.2a6.24,6.24,0,0,1-4.2,3.7c-2.2.6-8.7-.3-11.5-.5Z"/><path class="cls-5" d="M246.41,262.5a9.16,9.16,0,0,0-4.3-1.1h-1v24l6.6.6a4.65,4.65,0,0,0,3.4-.9,4.42,4.42,0,0,0,1.5-3.6,40.07,40.07,0,0,0,.1-6,48.52,48.52,0,0,0-.9-5.5,15.42,15.42,0,0,0-2.6-5.3A9.73,9.73,0,0,0,246.41,262.5Z"/><polygon class="cls-13" points="4.71 153.1 9.81 150.8 13.61 172.5 7.51 169.5 4.71 153.1"/><polygon class="cls-20" points="10.81 156.1 22.31 153.3 25.91 172.3 13.61 172.5 10.81 156.1"/></g></g></svg>