<?xml version="1.0" encoding="UTF-8"?>
<!DOCTYPE svg PUBLIC "-//W3C//DTD SVG 1.1//EN" "http://www.w3.org/Graphics/SVG/1.1/DTD/svg11.dtd">
<!-- Creator: CorelDRAW X6 -->
<svg xmlns="http://www.w3.org/2000/svg" xml:space="preserve" width="128.827mm" height="71.8249mm" version="1.1" style="shape-rendering:geometricPrecision; text-rendering:geometricPrecision; image-rendering:optimizeQuality; fill-rule:evenodd; clip-rule:evenodd"
viewBox="0 0 5136 2863"
 xmlns:xlink="http://www.w3.org/1999/xlink">
 <defs>
  <style type="text/css">
   <![CDATA[
    .fil3 {fill:#03041A}
    .fil0 {fill:#FEFEFE;fill-rule:nonzero}
    .fil1 {fill:#03041A;fill-rule:nonzero}
    .fil2 {fill:url(#id0);fill-rule:nonzero}
   ]]>
  </style>
  <linearGradient id="id0" gradientUnits="userSpaceOnUse" x1="2568.14" y1="1385.65" x2="2568.14" y2="2326.97">
   <stop offset="0" style="stop-color:#C5C5C5"/>
   <stop offset="1" style="stop-color:#EBECEC"/>
  </linearGradient>
 </defs>
 <g id="Слой_x0020_1">
  <metadata id="CorelCorpID_0Corel-Layer"/>
  <g id="_488565336">
   <path class="fil0" d="M4055 182l607 -119c63,-12 125,2 174,35 50,34 87,86 99,149 9,48 3,97 -16,139l0 0c-20,43 -52,80 -93,104l0 0 -507 336 -151 100 0 308 0 410 97 11c59,7 110,36 147,77 29,33 49,75 56,121l3 0 0 33 0 109 0 51 45 30 516 341c53,36 87,90 99,148 12,58 2,121 -34,174 -26,40 -62,69 -103,86 -32,13 -67,20 -102,18l0 2 -33 -6 -607 -119 0 0c-802,-146 -1250,-218 -1694,-215 -443,3 -885,81 -1674,235l-607 119c-63,12 -125,-2 -174,-35 -50,-33 -86,-85 -99,-148 -9,-49 -3,-98 16,-140 20,-43 52,-79 93,-104l0 0 507 -336 153 -101 0 -390c-24,-20 -44,-45 -58,-74 -16,-32 -25,-69 -24,-108 1,-36 10,-69 25,-99 10,-21 24,-40 40,-57l-2 -2 19 -14 0 -380 -153 -102 -516 -341c-53,-36 -87,-89 -99,-147 -12,-59 -1,-121 34,-175 26,-39 63,-69 104,-86 32,-13 66,-19 101,-17l1 -3 32 6 607 119 54 11c756,148 1198,235 1645,241 202,3 406,-11 641,-43 235,-31 502,-82 831,-152l0 0zm-2830 487c8,24 13,50 13,77l0 618 0 34 -2 0c0,4 1,8 1,12 1,7 1,14 1,20l0 3 0 686 0 33 -3 0c-2,16 -6,31 -11,46l-1 2 133 -26 81 -16 33 -6 0 1 78 -15 39 -7 75 -14 48 -8 46 -9 48 -8 45 -8 0 0 0 0 2 -1 0 0 1 0 36 -6 0 0 50 -8c26,-4 38,-6 45,-7 4,-1 6,-1 12,-2l0 0 23 -3 49 -7 1 0 12 -2 25 -3c6,-34 19,-66 39,-94 25,-35 59,-63 101,-80 59,-25 122,-23 177,-1 55,23 101,67 126,126l4 10 7 0 0 0 19 -1 22 0 0 0 19 0 0 0 22 -1 48 0 0 0c5,0 11,-1 18,-1 7,0 13,0 19,1l76 6c8,0 19,1 35,3 18,1 9,0 70,6 25,2 45,4 60,6 20,2 33,3 41,4 14,1 28,3 43,5 6,0 27,3 60,7 27,4 48,6 63,8 20,3 34,5 41,6 7,1 13,1 18,2 5,0 10,0 14,0 2,0 5,0 9,-1 3,0 6,-1 9,-2 2,0 4,-1 5,-1 2,-1 3,-2 5,-3 2,-1 3,-1 3,-1l0 -1c21,-20 46,-36 73,-47 27,-11 57,-17 88,-17 52,0 100,17 139,46 34,25 61,60 77,101l26 4 49 10 42 8 4 0 0 0c1,0 2,1 4,1l0 0 227 44c-1,-9 -2,-19 -2,-28l0 -78 -88 -10c-60,-5 -114,-33 -152,-74 -39,-42 -62,-97 -62,-158l0 -616 0 -432 0 -33 3 0c2,-16 6,-31 11,-46l1 -2c-97,17 -209,34 -330,53 -349,53 -765,117 -1051,221 -11,4 -78,-17 -182,-49 -250,-77 -726,-224 -930,-277z"/>
   <path class="fil1" d="M4707 291l-516 342 -256 169 0 432 0 616 195 23 108 13 0 109 0 175 150 99 516 342c-2309,-452 -2336,-446 -4672,20l516 -341 258 -171 0 -686 0 -3 -83 -2 83 -64 0 -618 -258 -170 -516 -342 607 119c1674,336 2008,324 3868,-62z"/>
   <path class="fil1" d="M4101 416l575 -112 -489 323 -258 171 0 436 0 622c66,7 132,15 199,23l1 1 102 12 0 103 0 179 154 101 488 323 -575 -112c-1349,-265 -1864,-293 -3460,20l-575 112 489 -323 260 -172 0 -690 0 -9 -71 -2 71 -54 0 -625 -260 -173 -489 -323 575 113c1658,315 1845,331 3263,56z"/>
   <path class="fil1" d="M4095 384l575 -113c18,-3 35,8 38,26 3,15 -3,28 -15,35l-487 323 -244 161 0 418 0 592 147 18 23 2 1 1 102 12c17,2 30,16 30,33l0 0 0 103 0 161 138 91 488 324c16,10 20,30 10,46 -8,11 -22,16 -34,14l0 0 -575 -113c-673,-132 -1137,-205 -1631,-206 -494,-1 -1021,70 -1817,226l-574 113c-18,4 -36,-8 -39,-26 -3,-14 4,-28 15,-35l487 -323 246 -162 0 -649 -39 -1c-18,0 -32,-15 -32,-33 0,-11 5,-20 13,-26l0 0 58 -45 0 -590 -246 -163 -488 -323c-15,-10 -19,-31 -9,-46 7,-12 21,-17 34,-15l0 0 574 113c1,0 2,0 2,0 826,157 1286,240 1714,249 428,9 828,-55 1535,-192l0 0zm423 -16l-411 81 0 0 0 0c-711,137 -1113,202 -1548,193 -434,-9 -896,-92 -1725,-249 -1,-1 -2,-1 -2,-1l-411 -80 349 231 258 171c11,6 17,16 17,29l0 625 0 0c0,9 -4,19 -13,26l-2 2c9,6 15,16 15,28l0 9 0 690 0 0c0,10 -5,21 -15,27l-260 173 -349 231 411 -81c799,-157 1329,-228 1829,-227 500,1 968,75 1644,207l410 81 -349 -231 -151 -101c-10,-5 -17,-16 -17,-28l0 -179 0 -74 -73 -9 -1 0 -22 -2c-59,-7 -117,-14 -176,-21 -17,-2 -30,-16 -30,-33l0 -622 0 -436 0 0c0,-10 5,-21 15,-27l258 -171 349 -232z"/>
   <path class="fil0" d="M1566 619c89,17 178,33 267,49 -36,122 -72,247 -107,373 -36,129 -71,260 -107,393 7,6 15,14 24,24 7,9 16,20 26,33 9,13 19,28 29,47 30,56 53,123 70,198 17,76 29,148 38,217 11,81 16,163 17,246 -85,16 -170,31 -256,47 4,-84 2,-164 -4,-240 -6,-67 -17,-133 -34,-201 -17,-67 -43,-124 -80,-169 -9,-11 -17,-19 -26,-27 -8,-7 -16,-13 -23,-17 -7,-6 -15,-10 -23,-11 0,117 0,233 0,350l0 89 0 4 0 6 0 5 0 6 0 5 0 6 0 5 0 6 0 5 0 6 0 5 0 6 0 5 0 6 0 5 0 6 0 5 0 5 0 6 0 5 0 6 0 5 0 6 0 5 0 6 0 5 0 6 0 5 0 6 0 5 0 6 0 5 0 6 0 5 0 6 0 5 0 5 0 6 0 5 0 6 0 5 0 6 0 5 0 6 0 5 0 6 0 5 0 6 -561 110 312 -207 0 -752 0 -752 -312 -207 561 110 0 5 0 5 0 5 0 5 0 5 0 5 0 5 0 5 0 5 0 6 0 5 0 5 0 5 0 5 0 5 0 5 0 5 0 5 0 5 0 5 0 5 0 5 0 6 0 5 0 5 0 5 0 5 0 5 0 5 0 5 0 5 0 5 0 5 0 5 0 5 0 6 0 5 0 5 0 5 0 5 0 5 0 5 0 5 0 5 0 5 0 5 0 5 0 6 0 5 0 5 0 5 0 2 0 64c0,108 0,216 0,325 -36,27 -71,53 -107,81 43,1 86,2 129,3 28,-120 55,-239 83,-356 28,-116 56,-230 84,-343zm2193 1643l561 110 -205 -136 0 -241c-136,-16 -272,-33 -408,-49 35,-24 70,-48 106,-73 0,-213 0,-426 0,-639l0 -498 310 -206 -561 110 0 13 0 12 0 13 0 12 0 12 0 13 0 12 0 13 0 12 0 12 0 13 0 12 0 12 0 13 0 12 0 13 0 12 0 12 0 13 0 12 0 13 0 1 0 531c0,264 0,528 0,792 66,12 132,24 197,37zm-1804 -1574c50,8 99,15 149,22 36,100 72,199 108,296 36,95 73,189 109,283 -34,19 -68,38 -102,57 54,1 108,2 162,2 0,-101 0,-202 0,-303 0,-101 0,-202 0,-304 87,7 174,9 261,10 0,228 0,455 0,682 0,227 0,454 0,681 -54,0 -108,2 -162,3 -39,-93 -78,-187 -117,-281 -38,-95 -77,-191 -115,-288 -13,0 -25,0 -37,1 0,98 0,197 0,296 0,99 0,197 0,296 -86,11 -171,23 -256,36 0,-248 0,-496 0,-744 0,-248 0,-497 0,-745zm1420 500c0,42 -6,78 -18,108 -11,30 -25,55 -41,75 -16,20 -33,35 -51,45 -18,9 -33,14 -45,14 9,0 24,6 46,20 23,14 46,36 69,66 23,31 44,70 62,117 19,48 28,105 28,171 0,33 0,66 0,99 0,101 -20,174 -61,215 -40,42 -95,55 -164,45 -135,-19 -271,-34 -406,-44 0,-229 0,-458 0,-686 0,-229 0,-458 0,-687 126,-9 252,-23 379,-40 38,-6 70,-4 96,5 26,8 47,23 62,43 16,20 27,47 34,78 7,32 10,67 10,106 0,84 0,167 0,250zm-339 -215c0,97 0,193 0,290 -30,27 -60,55 -90,82 50,0 101,-1 152,-2 15,0 29,-6 40,-19 11,-13 17,-33 17,-59 0,-78 0,-155 0,-233 0,-28 -6,-46 -18,-54 -12,-8 -23,-12 -33,-11 -23,2 -45,4 -68,6zm0 583c0,113 0,226 0,338 31,3 62,5 94,8 17,2 33,-3 47,-13 14,-11 19,-28 21,-51 2,-27 4,-55 2,-83 -2,-25 -7,-50 -14,-77 -6,-27 -19,-52 -36,-76 -8,-10 -21,-21 -39,-30 -18,-10 -38,-15 -60,-16 -5,0 -10,0 -15,0z"/>
   <path class="fil2" d="M1162 1549l0 636 0 18 -15 9 -173 115 370 -73 0 -673 0 -39 38 6c7,1 14,4 21,7 6,2 12,6 17,10l2 1 0 0c7,5 15,11 23,18 4,4 9,9 15,14 4,5 9,10 14,17 21,24 38,52 53,83 14,30 25,63 34,100 9,34 16,68 22,103 6,34 10,68 13,102 3,38 5,78 6,119 0,28 0,56 0,84 53,-10 111,-20 168,-31l19 -3c0,-31 -2,-63 -4,-95 -3,-41 -7,-81 -11,-119 -5,-33 -10,-68 -17,-105 -6,-36 -13,-72 -21,-110 -8,-36 -18,-70 -29,-102 -11,-32 -24,-61 -38,-87 -5,-9 -9,-17 -14,-24 -4,-7 -9,-14 -13,-20 -3,-5 -8,-10 -12,-16 -4,-5 -8,-9 -12,-14 -5,-5 -9,-9 -11,-12 -3,-3 -6,-5 -8,-8 -152,25 -299,55 -437,89zm1406 -163c14,0 27,0 41,0l0 47 0 648c-17,0 -33,1 -49,1 -20,0 -39,1 -59,1 -19,-45 -36,-87 -49,-119 -17,-40 -36,-86 -58,-141 -23,-57 -44,-109 -58,-143 -21,-53 -41,-102 -58,-144l-8 -22 -23 1 -1 0c-12,0 -25,0 -36,1l-32 0 0 33 0 296 0 267c-35,4 -69,9 -100,13 -28,5 -58,9 -90,14l0 -706 0 -21c187,-17 381,-26 580,-26zm259 5c134,5 265,15 393,28l0 11 0 0 0 33c31,8 70,49 89,73 81,106 93,249 84,377 -6,79 -22,151 -52,182 -16,17 -35,27 -57,33 -23,6 -49,7 -80,2 -67,-9 -135,-18 -204,-25 -58,-7 -116,-12 -173,-17l0 -655 0 -42zm768 79c63,10 124,22 184,35l0 351c-11,8 -24,17 -38,27 -19,13 -37,25 -52,36l-74 50 89 10c126,15 252,30 378,45l0 212 0 17 15 10 66 44 -397 -78 0 0c-33,-6 -66,-12 -99,-18 -17,-4 -40,-8 -72,-14l0 -727zm-592 424l0 -338 0 -34c26,1 63,0 88,7 12,3 24,7 36,14 11,6 20,12 27,18 9,6 16,14 22,22 52,70 77,220 47,297 -10,27 -32,44 -59,52 -31,9 -123,-4 -161,-7l0 -31z"/>
   <path class="fil3" d="M3111 1572c-18,-10 -38,-15 -60,-16l-15 0 0 338c31,3 62,5 94,8 17,2 33,-3 47,-13 14,-11 19,-28 21,-51 2,-27 4,-55 2,-83 -2,-25 -7,-50 -14,-77 -6,-27 -19,-52 -36,-76 -8,-10 -21,-21 -39,-30z"/>
  </g>
 </g>
</svg>
